<?xml version="1.0" encoding="utf-8" standalone="no"?>
<!DOCTYPE svg PUBLIC "-//W3C//DTD SVG 1.1//EN"
  "http://www.w3.org/Graphics/SVG/1.1/DTD/svg11.dtd">
<!-- Created with matplotlib (http://matplotlib.org/) -->
<svg height="460pt" version="1.1" viewBox="0 0 461 460" width="461pt" xmlns="http://www.w3.org/2000/svg" xmlns:xlink="http://www.w3.org/1999/xlink">
 <defs>
  <style type="text/css">
*{stroke-linecap:butt;stroke-linejoin:round;}
  </style>
 </defs>
 <g id="figure_1">
  <g id="patch_1">
   <path d="M 0 460.975625 
L 461.273594 460.975625 
L 461.273594 0 
L 0 0 
z
" style="fill:#ffffff;"/>
  </g>
  <g id="axes_1">
   <g id="patch_2">
    <path d="M 58.701719 409.87 
L 449.301719 409.87 
L 449.301719 29.35 
L 58.701719 29.35 
z
" style="fill:#ffffff;"/>
   </g>
   <g id="matplotlib.axis_1">
    <g id="xtick_1">
     <g id="line2d_1">
      <path clip-path="url(#p29cebb73df)" d="M 58.701719 409.87 
L 58.701719 29.35 
" style="fill:none;stroke:#b0b0b0;stroke-linecap:square;stroke-width:0.8;"/>
     </g>
     <g id="line2d_2">
      <defs>
       <path d="M 0 0 
L 0 3.5 
" id="m46cb2c61bf" style="stroke:#000000;stroke-width:0.8;"/>
      </defs>
      <g>
       <use style="stroke:#000000;stroke-width:0.8;" x="58.701719" xlink:href="#m46cb2c61bf" y="409.87"/>
      </g>
     </g>
     <g id="text_1">
      <!-- −4 -->
      <defs>
       <path d="M 10.59375 35.5 
L 73.1875 35.5 
L 73.1875 27.203125 
L 10.59375 27.203125 
z
" id="DejaVuSans-2212"/>
       <path d="M 37.796875 64.3125 
L 12.890625 25.390625 
L 37.796875 25.390625 
z
M 35.203125 72.90625 
L 47.609375 72.90625 
L 47.609375 25.390625 
L 58.015625 25.390625 
L 58.015625 17.1875 
L 47.609375 17.1875 
L 47.609375 0 
L 37.796875 0 
L 37.796875 17.1875 
L 4.890625 17.1875 
L 4.890625 26.703125 
z
" id="DejaVuSans-34"/>
      </defs>
      <g transform="translate(47.645078 428.267656)scale(0.15 -0.15)">
       <use xlink:href="#DejaVuSans-2212"/>
       <use x="83.789062" xlink:href="#DejaVuSans-34"/>
      </g>
     </g>
    </g>
    <g id="xtick_2">
     <g id="line2d_3">
      <path clip-path="url(#p29cebb73df)" d="M 107.526719 409.87 
L 107.526719 29.35 
" style="fill:none;stroke:#b0b0b0;stroke-linecap:square;stroke-width:0.8;"/>
     </g>
     <g id="line2d_4">
      <g>
       <use style="stroke:#000000;stroke-width:0.8;" x="107.526719" xlink:href="#m46cb2c61bf" y="409.87"/>
      </g>
     </g>
     <g id="text_2">
      <!-- −3 -->
      <defs>
       <path d="M 40.578125 39.3125 
Q 47.65625 37.796875 51.625 33 
Q 55.609375 28.21875 55.609375 21.1875 
Q 55.609375 10.40625 48.1875 4.484375 
Q 40.765625 -1.421875 27.09375 -1.421875 
Q 22.515625 -1.421875 17.65625 -0.515625 
Q 12.796875 0.390625 7.625 2.203125 
L 7.625 11.71875 
Q 11.71875 9.328125 16.59375 8.109375 
Q 21.484375 6.890625 26.8125 6.890625 
Q 36.078125 6.890625 40.9375 10.546875 
Q 45.796875 14.203125 45.796875 21.1875 
Q 45.796875 27.640625 41.28125 31.265625 
Q 36.765625 34.90625 28.71875 34.90625 
L 20.21875 34.90625 
L 20.21875 43.015625 
L 29.109375 43.015625 
Q 36.375 43.015625 40.234375 45.921875 
Q 44.09375 48.828125 44.09375 54.296875 
Q 44.09375 59.90625 40.109375 62.90625 
Q 36.140625 65.921875 28.71875 65.921875 
Q 24.65625 65.921875 20.015625 65.03125 
Q 15.375 64.15625 9.8125 62.3125 
L 9.8125 71.09375 
Q 15.4375 72.65625 20.34375 73.4375 
Q 25.25 74.21875 29.59375 74.21875 
Q 40.828125 74.21875 47.359375 69.109375 
Q 53.90625 64.015625 53.90625 55.328125 
Q 53.90625 49.265625 50.4375 45.09375 
Q 46.96875 40.921875 40.578125 39.3125 
z
" id="DejaVuSans-33"/>
      </defs>
      <g transform="translate(96.470078 428.267656)scale(0.15 -0.15)">
       <use xlink:href="#DejaVuSans-2212"/>
       <use x="83.789062" xlink:href="#DejaVuSans-33"/>
      </g>
     </g>
    </g>
    <g id="xtick_3">
     <g id="line2d_5">
      <path clip-path="url(#p29cebb73df)" d="M 156.351719 409.87 
L 156.351719 29.35 
" style="fill:none;stroke:#b0b0b0;stroke-linecap:square;stroke-width:0.8;"/>
     </g>
     <g id="line2d_6">
      <g>
       <use style="stroke:#000000;stroke-width:0.8;" x="156.351719" xlink:href="#m46cb2c61bf" y="409.87"/>
      </g>
     </g>
     <g id="text_3">
      <!-- −2 -->
      <defs>
       <path d="M 19.1875 8.296875 
L 53.609375 8.296875 
L 53.609375 0 
L 7.328125 0 
L 7.328125 8.296875 
Q 12.9375 14.109375 22.625 23.890625 
Q 32.328125 33.6875 34.8125 36.53125 
Q 39.546875 41.84375 41.421875 45.53125 
Q 43.3125 49.21875 43.3125 52.78125 
Q 43.3125 58.59375 39.234375 62.25 
Q 35.15625 65.921875 28.609375 65.921875 
Q 23.96875 65.921875 18.8125 64.3125 
Q 13.671875 62.703125 7.8125 59.421875 
L 7.8125 69.390625 
Q 13.765625 71.78125 18.9375 73 
Q 24.125 74.21875 28.421875 74.21875 
Q 39.75 74.21875 46.484375 68.546875 
Q 53.21875 62.890625 53.21875 53.421875 
Q 53.21875 48.921875 51.53125 44.890625 
Q 49.859375 40.875 45.40625 35.40625 
Q 44.1875 33.984375 37.640625 27.21875 
Q 31.109375 20.453125 19.1875 8.296875 
z
" id="DejaVuSans-32"/>
      </defs>
      <g transform="translate(145.295078 428.267656)scale(0.15 -0.15)">
       <use xlink:href="#DejaVuSans-2212"/>
       <use x="83.789062" xlink:href="#DejaVuSans-32"/>
      </g>
     </g>
    </g>
    <g id="xtick_4">
     <g id="line2d_7">
      <path clip-path="url(#p29cebb73df)" d="M 205.176719 409.87 
L 205.176719 29.35 
" style="fill:none;stroke:#b0b0b0;stroke-linecap:square;stroke-width:0.8;"/>
     </g>
     <g id="line2d_8">
      <g>
       <use style="stroke:#000000;stroke-width:0.8;" x="205.176719" xlink:href="#m46cb2c61bf" y="409.87"/>
      </g>
     </g>
     <g id="text_4">
      <!-- −1 -->
      <defs>
       <path d="M 12.40625 8.296875 
L 28.515625 8.296875 
L 28.515625 63.921875 
L 10.984375 60.40625 
L 10.984375 69.390625 
L 28.421875 72.90625 
L 38.28125 72.90625 
L 38.28125 8.296875 
L 54.390625 8.296875 
L 54.390625 0 
L 12.40625 0 
z
" id="DejaVuSans-31"/>
      </defs>
      <g transform="translate(194.120078 428.267656)scale(0.15 -0.15)">
       <use xlink:href="#DejaVuSans-2212"/>
       <use x="83.789062" xlink:href="#DejaVuSans-31"/>
      </g>
     </g>
    </g>
    <g id="xtick_5">
     <g id="line2d_9">
      <path clip-path="url(#p29cebb73df)" d="M 254.001719 409.87 
L 254.001719 29.35 
" style="fill:none;stroke:#b0b0b0;stroke-linecap:square;stroke-width:0.8;"/>
     </g>
     <g id="line2d_10">
      <g>
       <use style="stroke:#000000;stroke-width:0.8;" x="254.001719" xlink:href="#m46cb2c61bf" y="409.87"/>
      </g>
     </g>
     <g id="text_5">
      <!-- 0 -->
      <defs>
       <path d="M 31.78125 66.40625 
Q 24.171875 66.40625 20.328125 58.90625 
Q 16.5 51.421875 16.5 36.375 
Q 16.5 21.390625 20.328125 13.890625 
Q 24.171875 6.390625 31.78125 6.390625 
Q 39.453125 6.390625 43.28125 13.890625 
Q 47.125 21.390625 47.125 36.375 
Q 47.125 51.421875 43.28125 58.90625 
Q 39.453125 66.40625 31.78125 66.40625 
z
M 31.78125 74.21875 
Q 44.046875 74.21875 50.515625 64.515625 
Q 56.984375 54.828125 56.984375 36.375 
Q 56.984375 17.96875 50.515625 8.265625 
Q 44.046875 -1.421875 31.78125 -1.421875 
Q 19.53125 -1.421875 13.0625 8.265625 
Q 6.59375 17.96875 6.59375 36.375 
Q 6.59375 54.828125 13.0625 64.515625 
Q 19.53125 74.21875 31.78125 74.21875 
z
" id="DejaVuSans-30"/>
      </defs>
      <g transform="translate(249.229844 428.267656)scale(0.15 -0.15)">
       <use xlink:href="#DejaVuSans-30"/>
      </g>
     </g>
    </g>
    <g id="xtick_6">
     <g id="line2d_11">
      <path clip-path="url(#p29cebb73df)" d="M 302.826719 409.87 
L 302.826719 29.35 
" style="fill:none;stroke:#b0b0b0;stroke-linecap:square;stroke-width:0.8;"/>
     </g>
     <g id="line2d_12">
      <g>
       <use style="stroke:#000000;stroke-width:0.8;" x="302.826719" xlink:href="#m46cb2c61bf" y="409.87"/>
      </g>
     </g>
     <g id="text_6">
      <!-- 1 -->
      <g transform="translate(298.054844 428.267656)scale(0.15 -0.15)">
       <use xlink:href="#DejaVuSans-31"/>
      </g>
     </g>
    </g>
    <g id="xtick_7">
     <g id="line2d_13">
      <path clip-path="url(#p29cebb73df)" d="M 351.651719 409.87 
L 351.651719 29.35 
" style="fill:none;stroke:#b0b0b0;stroke-linecap:square;stroke-width:0.8;"/>
     </g>
     <g id="line2d_14">
      <g>
       <use style="stroke:#000000;stroke-width:0.8;" x="351.651719" xlink:href="#m46cb2c61bf" y="409.87"/>
      </g>
     </g>
     <g id="text_7">
      <!-- 2 -->
      <g transform="translate(346.879844 428.267656)scale(0.15 -0.15)">
       <use xlink:href="#DejaVuSans-32"/>
      </g>
     </g>
    </g>
    <g id="xtick_8">
     <g id="line2d_15">
      <path clip-path="url(#p29cebb73df)" d="M 400.476719 409.87 
L 400.476719 29.35 
" style="fill:none;stroke:#b0b0b0;stroke-linecap:square;stroke-width:0.8;"/>
     </g>
     <g id="line2d_16">
      <g>
       <use style="stroke:#000000;stroke-width:0.8;" x="400.476719" xlink:href="#m46cb2c61bf" y="409.87"/>
      </g>
     </g>
     <g id="text_8">
      <!-- 3 -->
      <g transform="translate(395.704844 428.267656)scale(0.15 -0.15)">
       <use xlink:href="#DejaVuSans-33"/>
      </g>
     </g>
    </g>
    <g id="xtick_9">
     <g id="line2d_17">
      <path clip-path="url(#p29cebb73df)" d="M 449.301719 409.87 
L 449.301719 29.35 
" style="fill:none;stroke:#b0b0b0;stroke-linecap:square;stroke-width:0.8;"/>
     </g>
     <g id="line2d_18">
      <g>
       <use style="stroke:#000000;stroke-width:0.8;" x="449.301719" xlink:href="#m46cb2c61bf" y="409.87"/>
      </g>
     </g>
     <g id="text_9">
      <!-- 4 -->
      <g transform="translate(444.529844 428.267656)scale(0.15 -0.15)">
       <use xlink:href="#DejaVuSans-34"/>
      </g>
     </g>
    </g>
    <g id="text_10">
     <!-- $w_1$ -->
     <defs>
      <path d="M 10.796875 11.625 
Q 10.796875 13.71875 11.359375 16.453125 
Q 11.921875 19.1875 12.59375 21.3125 
Q 13.28125 23.4375 14.90625 27.828125 
Q 16.546875 32.234375 16.703125 32.625 
Q 18.015625 36.28125 18.015625 38.625 
Q 18.015625 41.609375 15.828125 41.609375 
Q 11.859375 41.609375 9.296875 37.53125 
Q 6.734375 33.453125 5.515625 28.421875 
Q 5.328125 27.78125 4.6875 27.78125 
L 3.515625 27.78125 
Q 2.6875 27.78125 2.6875 28.71875 
L 2.6875 29 
Q 4.296875 34.96875 7.609375 39.578125 
Q 10.9375 44.1875 16.015625 44.1875 
Q 19.578125 44.1875 22.046875 41.84375 
Q 24.515625 39.5 24.515625 35.890625 
Q 24.515625 34.03125 23.6875 31.984375 
Q 22.515625 28.953125 20.921875 24.703125 
Q 19.34375 20.453125 18.453125 16.984375 
Q 17.578125 13.53125 17.578125 10.296875 
Q 17.578125 6.390625 19.625 3.953125 
Q 21.6875 1.515625 25.59375 1.515625 
Q 30.90625 1.515625 34.421875 9.625 
Q 34.28125 10.203125 34.28125 11.28125 
Q 34.28125 13.96875 35.109375 17.390625 
L 40.71875 39.890625 
Q 41.0625 41.21875 42.28125 42.15625 
Q 43.5 43.109375 44.921875 43.109375 
Q 46.09375 43.109375 47 42.328125 
Q 47.90625 41.546875 47.90625 40.28125 
Q 47.90625 39.703125 47.796875 39.5 
L 42.1875 17.1875 
Q 41.21875 13.1875 41.21875 10.015625 
Q 41.21875 6.25 42.9375 3.875 
Q 44.671875 1.515625 48.390625 1.515625 
Q 54.828125 1.515625 58.984375 10.015625 
Q 60.546875 13.03125 62.46875 18.9375 
Q 64.40625 24.859375 64.40625 27.984375 
Q 64.40625 30.859375 63.46875 32.546875 
Q 62.546875 34.234375 60.90625 36.1875 
Q 59.28125 38.140625 59.28125 39.109375 
Q 59.28125 41.015625 60.90625 42.640625 
Q 62.546875 44.28125 64.5 44.28125 
Q 66.890625 44.28125 67.9375 42.078125 
Q 69 39.890625 69 37.109375 
Q 69 33.734375 67.875 28.53125 
Q 66.75 23.34375 65.03125 18.09375 
Q 63.328125 12.84375 61.8125 9.71875 
Q 56.34375 -1.125 48.1875 -1.125 
Q 44 -1.125 40.53125 0.484375 
Q 37.0625 2.09375 35.40625 5.609375 
Q 33.796875 2.734375 31.171875 0.796875 
Q 28.5625 -1.125 25.390625 -1.125 
Q 18.796875 -1.125 14.796875 2.015625 
Q 10.796875 5.171875 10.796875 11.625 
z
" id="Cmmi10-77"/>
      <path d="M 9.28125 0 
L 9.28125 3.515625 
Q 21.78125 3.515625 21.78125 6.6875 
L 21.78125 59.1875 
Q 16.609375 56.6875 8.6875 56.6875 
L 8.6875 60.203125 
Q 20.953125 60.203125 27.203125 66.609375 
L 28.609375 66.609375 
Q 28.953125 66.609375 29.265625 66.328125 
Q 29.59375 66.0625 29.59375 65.71875 
L 29.59375 6.6875 
Q 29.59375 3.515625 42.09375 3.515625 
L 42.09375 0 
z
" id="Cmr10-31"/>
     </defs>
     <g transform="translate(243.266719 449.824219)scale(0.19 -0.19)">
      <use transform="translate(0 0.71875)" xlink:href="#Cmmi10-77"/>
      <use transform="translate(71.484375 -16.2875)scale(0.7)" xlink:href="#Cmr10-31"/>
     </g>
    </g>
   </g>
   <g id="matplotlib.axis_2">
    <g id="ytick_1">
     <g id="line2d_19">
      <path clip-path="url(#p29cebb73df)" d="M 58.701719 409.87 
L 449.301719 409.87 
" style="fill:none;stroke:#b0b0b0;stroke-linecap:square;stroke-width:0.8;"/>
     </g>
     <g id="line2d_20">
      <defs>
       <path d="M 0 0 
L -3.5 0 
" id="md1df5406d5" style="stroke:#000000;stroke-width:0.8;"/>
      </defs>
      <g>
       <use style="stroke:#000000;stroke-width:0.8;" x="58.701719" xlink:href="#md1df5406d5" y="409.87"/>
      </g>
     </g>
     <g id="text_11">
      <!-- −4 -->
      <g transform="translate(29.588438 415.568828)scale(0.15 -0.15)">
       <use xlink:href="#DejaVuSans-2212"/>
       <use x="83.789062" xlink:href="#DejaVuSans-34"/>
      </g>
     </g>
    </g>
    <g id="ytick_2">
     <g id="line2d_21">
      <path clip-path="url(#p29cebb73df)" d="M 58.701719 362.305 
L 449.301719 362.305 
" style="fill:none;stroke:#b0b0b0;stroke-linecap:square;stroke-width:0.8;"/>
     </g>
     <g id="line2d_22">
      <g>
       <use style="stroke:#000000;stroke-width:0.8;" x="58.701719" xlink:href="#md1df5406d5" y="362.305"/>
      </g>
     </g>
     <g id="text_12">
      <!-- −3 -->
      <g transform="translate(29.588438 368.003828)scale(0.15 -0.15)">
       <use xlink:href="#DejaVuSans-2212"/>
       <use x="83.789062" xlink:href="#DejaVuSans-33"/>
      </g>
     </g>
    </g>
    <g id="ytick_3">
     <g id="line2d_23">
      <path clip-path="url(#p29cebb73df)" d="M 58.701719 314.74 
L 449.301719 314.74 
" style="fill:none;stroke:#b0b0b0;stroke-linecap:square;stroke-width:0.8;"/>
     </g>
     <g id="line2d_24">
      <g>
       <use style="stroke:#000000;stroke-width:0.8;" x="58.701719" xlink:href="#md1df5406d5" y="314.74"/>
      </g>
     </g>
     <g id="text_13">
      <!-- −2 -->
      <g transform="translate(29.588438 320.438828)scale(0.15 -0.15)">
       <use xlink:href="#DejaVuSans-2212"/>
       <use x="83.789062" xlink:href="#DejaVuSans-32"/>
      </g>
     </g>
    </g>
    <g id="ytick_4">
     <g id="line2d_25">
      <path clip-path="url(#p29cebb73df)" d="M 58.701719 267.175 
L 449.301719 267.175 
" style="fill:none;stroke:#b0b0b0;stroke-linecap:square;stroke-width:0.8;"/>
     </g>
     <g id="line2d_26">
      <g>
       <use style="stroke:#000000;stroke-width:0.8;" x="58.701719" xlink:href="#md1df5406d5" y="267.175"/>
      </g>
     </g>
     <g id="text_14">
      <!-- −1 -->
      <g transform="translate(29.588438 272.873828)scale(0.15 -0.15)">
       <use xlink:href="#DejaVuSans-2212"/>
       <use x="83.789062" xlink:href="#DejaVuSans-31"/>
      </g>
     </g>
    </g>
    <g id="ytick_5">
     <g id="line2d_27">
      <path clip-path="url(#p29cebb73df)" d="M 58.701719 219.61 
L 449.301719 219.61 
" style="fill:none;stroke:#b0b0b0;stroke-linecap:square;stroke-width:0.8;"/>
     </g>
     <g id="line2d_28">
      <g>
       <use style="stroke:#000000;stroke-width:0.8;" x="58.701719" xlink:href="#md1df5406d5" y="219.61"/>
      </g>
     </g>
     <g id="text_15">
      <!-- 0 -->
      <g transform="translate(42.157969 225.308828)scale(0.15 -0.15)">
       <use xlink:href="#DejaVuSans-30"/>
      </g>
     </g>
    </g>
    <g id="ytick_6">
     <g id="line2d_29">
      <path clip-path="url(#p29cebb73df)" d="M 58.701719 172.045 
L 449.301719 172.045 
" style="fill:none;stroke:#b0b0b0;stroke-linecap:square;stroke-width:0.8;"/>
     </g>
     <g id="line2d_30">
      <g>
       <use style="stroke:#000000;stroke-width:0.8;" x="58.701719" xlink:href="#md1df5406d5" y="172.045"/>
      </g>
     </g>
     <g id="text_16">
      <!-- 1 -->
      <g transform="translate(42.157969 177.743828)scale(0.15 -0.15)">
       <use xlink:href="#DejaVuSans-31"/>
      </g>
     </g>
    </g>
    <g id="ytick_7">
     <g id="line2d_31">
      <path clip-path="url(#p29cebb73df)" d="M 58.701719 124.48 
L 449.301719 124.48 
" style="fill:none;stroke:#b0b0b0;stroke-linecap:square;stroke-width:0.8;"/>
     </g>
     <g id="line2d_32">
      <g>
       <use style="stroke:#000000;stroke-width:0.8;" x="58.701719" xlink:href="#md1df5406d5" y="124.48"/>
      </g>
     </g>
     <g id="text_17">
      <!-- 2 -->
      <g transform="translate(42.157969 130.178828)scale(0.15 -0.15)">
       <use xlink:href="#DejaVuSans-32"/>
      </g>
     </g>
    </g>
    <g id="ytick_8">
     <g id="line2d_33">
      <path clip-path="url(#p29cebb73df)" d="M 58.701719 76.915 
L 449.301719 76.915 
" style="fill:none;stroke:#b0b0b0;stroke-linecap:square;stroke-width:0.8;"/>
     </g>
     <g id="line2d_34">
      <g>
       <use style="stroke:#000000;stroke-width:0.8;" x="58.701719" xlink:href="#md1df5406d5" y="76.915"/>
      </g>
     </g>
     <g id="text_18">
      <!-- 3 -->
      <g transform="translate(42.157969 82.613828)scale(0.15 -0.15)">
       <use xlink:href="#DejaVuSans-33"/>
      </g>
     </g>
    </g>
    <g id="ytick_9">
     <g id="line2d_35">
      <path clip-path="url(#p29cebb73df)" d="M 58.701719 29.35 
L 449.301719 29.35 
" style="fill:none;stroke:#b0b0b0;stroke-linecap:square;stroke-width:0.8;"/>
     </g>
     <g id="line2d_36">
      <g>
       <use style="stroke:#000000;stroke-width:0.8;" x="58.701719" xlink:href="#md1df5406d5" y="29.35"/>
      </g>
     </g>
     <g id="text_19">
      <!-- 4 -->
      <g transform="translate(42.157969 35.048828)scale(0.15 -0.15)">
       <use xlink:href="#DejaVuSans-34"/>
      </g>
     </g>
    </g>
    <g id="text_20">
     <!-- $w_2$ -->
     <defs>
      <path d="M 4.984375 0 
L 4.984375 2.6875 
Q 4.984375 2.9375 5.171875 3.21875 
L 20.703125 20.40625 
Q 24.21875 24.21875 26.40625 26.796875 
Q 28.609375 29.390625 30.75 32.765625 
Q 32.90625 36.140625 34.15625 39.625 
Q 35.40625 43.109375 35.40625 47.015625 
Q 35.40625 51.125 33.890625 54.859375 
Q 32.375 58.59375 29.375 60.84375 
Q 26.375 63.09375 22.125 63.09375 
Q 17.78125 63.09375 14.3125 60.46875 
Q 10.84375 57.859375 9.421875 53.71875 
Q 9.8125 53.8125 10.5 53.8125 
Q 12.75 53.8125 14.328125 52.296875 
Q 15.921875 50.78125 15.921875 48.390625 
Q 15.921875 46.09375 14.328125 44.5 
Q 12.75 42.921875 10.5 42.921875 
Q 8.15625 42.921875 6.5625 44.546875 
Q 4.984375 46.1875 4.984375 48.390625 
Q 4.984375 52.15625 6.390625 55.4375 
Q 7.8125 58.734375 10.46875 61.296875 
Q 13.140625 63.875 16.484375 65.234375 
Q 19.828125 66.609375 23.578125 66.609375 
Q 29.296875 66.609375 34.21875 64.1875 
Q 39.15625 61.765625 42.03125 57.34375 
Q 44.921875 52.9375 44.921875 47.015625 
Q 44.921875 42.671875 43.015625 38.765625 
Q 41.109375 34.859375 38.125 31.65625 
Q 35.15625 28.46875 30.515625 24.40625 
Q 25.875 20.359375 24.421875 19 
L 13.09375 8.109375 
L 22.703125 8.109375 
Q 29.78125 8.109375 34.546875 8.21875 
Q 39.3125 8.34375 39.59375 8.59375 
Q 40.765625 9.859375 42 17.828125 
L 44.921875 17.828125 
L 42.09375 0 
z
" id="Cmr10-32"/>
     </defs>
     <g transform="translate(21.637031 230.345)rotate(-90)scale(0.19 -0.19)">
      <use transform="translate(0 0.71875)" xlink:href="#Cmmi10-77"/>
      <use transform="translate(71.484375 -16.2875)scale(0.7)" xlink:href="#Cmr10-32"/>
     </g>
    </g>
   </g>
   <g id="LineCollection_1"/>
   <g id="LineCollection_2">
    <path clip-path="url(#p29cebb73df)" d="M 234.929453 409.87 
L 234.471719 406.794677 
L 234.335748 405.1135 
L 233.932436 400.357 
L 233.483511 395.6005 
L 232.979844 390.844 
L 232.409545 386.0875 
L 231.75681 381.331 
L 231.000125 376.5745 
L 230.109371 371.818 
L 229.589219 369.336348 
L 229.282038 367.0615 
L 228.58768 362.305 
L 227.785339 357.5485 
L 226.844427 352.792 
L 225.720877 348.0355 
L 224.706719 344.380788 
L 224.48355 343.279 
L 223.456799 338.5225 
L 222.229141 333.766 
L 220.726956 329.0095 
L 219.824219 326.521939 
L 219.168666 324.253 
L 217.618501 319.4965 
L 215.674094 314.74 
L 214.941719 313.147422 
L 213.696545 309.9835 
L 211.451294 305.227 
L 210.059219 302.726965 
L 208.91273 300.4705 
L 206.056977 295.714 
L 205.176719 294.416773 
L 202.912371 290.9575 
L 200.294219 287.596337 
L 199.196514 286.201 
L 195.411719 281.968738 
L 194.918962 281.4445 
L 190.529219 277.168041 
L 189.991094 276.688 
L 185.646719 273.000877 
L 184.214419 271.9315 
L 180.764219 269.380913 
L 177.21331 267.175 
L 175.881719 266.317458 
L 170.999219 263.535402 
L 168.68298 262.4185 
L 166.116719 261.062349 
L 161.234219 258.87504 
L 157.986484 257.662 
L 156.351719 256.948525 
L 151.469219 255.054296 
L 146.586719 253.544135 
L 144.257675 252.9055 
L 141.704219 252.026059 
L 136.821719 250.562641 
L 131.939219 249.366664 
L 127.056719 248.36641 
L 125.925744 248.149 
L 122.174219 247.161014 
L 117.291719 246.066458 
L 112.409219 245.149828 
L 107.526719 244.368192 
L 102.644219 243.691754 
L 100.30911 243.3925 
L 97.761719 242.885771 
L 92.879219 242.018004 
L 87.996719 241.280846 
L 83.114219 240.644957 
L 78.231719 240.089375 
L 73.349219 239.598706 
L 68.466719 239.161366 
L 63.584219 238.768462 
L 61.858508 238.636 
L 58.701719 238.190078 
" style="fill:none;stroke:#0028ff;stroke-width:1.5;"/>
    <path clip-path="url(#p29cebb73df)" d="M 58.701719 224.812422 
L 63.584219 224.985124 
L 68.466719 225.15828 
L 73.349219 225.332822 
L 78.231719 225.509668 
L 83.114219 225.689737 
L 87.996719 225.873962 
L 92.879219 226.063313 
L 97.761719 226.258809 
L 102.644219 226.46154 
L 107.526719 226.672682 
L 112.409219 226.893527 
L 117.291719 227.125504 
L 122.174219 227.370216 
L 127.056719 227.629471 
L 131.939219 227.905336 
L 136.821719 228.200189 
L 141.704219 228.516795 
L 146.586719 228.858391 
L 150.098692 229.123 
L 151.469219 229.275589 
L 156.351719 229.836475 
L 161.234219 230.420011 
L 166.116719 231.035209 
L 170.999219 231.69224 
L 175.881719 232.403003 
L 180.764219 233.18188 
L 184.724949 233.8795 
L 185.646719 234.092676 
L 190.529219 235.292687 
L 195.411719 236.599453 
L 200.294219 238.059455 
L 202.01993 238.636 
L 205.176719 239.933227 
L 210.059219 242.171176 
L 212.394327 243.3925 
L 214.941719 244.985078 
L 219.350764 248.149 
L 219.824219 248.547972 
L 224.297177 252.9055 
L 224.706719 253.366736 
L 227.954453 257.662 
L 229.589219 260.143652 
L 230.842895 262.4185 
L 233.140128 267.175 
L 234.471719 270.250323 
L 235.063537 271.9315 
L 236.562214 276.688 
L 237.903596 281.4445 
L 239.135395 286.201 
L 239.354219 287.098982 
L 240.070319 290.9575 
L 240.869828 295.714 
L 241.59942 300.4705 
L 242.273855 305.227 
L 242.90535 309.9835 
L 243.504344 314.74 
L 244.080087 319.4965 
L 244.236719 320.831658 
L 244.508337 324.253 
L 244.858982 329.0095 
L 245.183975 333.766 
L 245.486639 338.5225 
L 245.769811 343.279 
L 246.035934 348.0355 
L 246.287128 352.792 
L 246.525251 357.5485 
L 246.751946 362.305 
L 246.968681 367.0615 
L 247.176782 371.818 
L 247.377457 376.5745 
L 247.571824 381.331 
L 247.760929 386.0875 
L 247.945768 390.844 
L 248.127299 395.6005 
L 248.306465 400.357 
L 248.484207 405.1135 
L 248.661484 409.87 
" style="fill:none;stroke:#0028ff;stroke-width:1.5;"/>
    <path clip-path="url(#p29cebb73df)" d="M 449.301719 214.407578 
L 444.419219 214.234876 
L 439.536719 214.06172 
L 434.654219 213.887178 
L 429.771719 213.710332 
L 424.889219 213.530263 
L 420.006719 213.346038 
L 415.124219 213.156687 
L 410.241719 212.961191 
L 405.359219 212.75846 
L 400.476719 212.547318 
L 395.594219 212.326473 
L 390.711719 212.094496 
L 385.829219 211.849784 
L 380.946719 211.590529 
L 376.064219 211.314664 
L 371.181719 211.019811 
L 366.299219 210.703205 
L 361.416719 210.361609 
L 357.904745 210.097 
L 356.534219 209.944411 
L 351.651719 209.383525 
L 346.769219 208.799989 
L 341.886719 208.184791 
L 337.004219 207.52776 
L 332.121719 206.816997 
L 327.239219 206.03812 
L 323.278489 205.3405 
L 322.356719 205.127324 
L 317.474219 203.927313 
L 312.591719 202.620547 
L 307.709219 201.160545 
L 305.983508 200.584 
L 302.826719 199.286773 
L 297.944219 197.048824 
L 295.60911 195.8275 
L 293.061719 194.234922 
L 288.652673 191.071 
L 288.179219 190.672028 
L 283.70626 186.3145 
L 283.296719 185.853264 
L 280.048984 181.558 
L 278.414219 179.076348 
L 277.160542 176.8015 
L 274.86331 172.045 
L 273.531719 168.969677 
L 272.939901 167.2885 
L 271.441223 162.532 
L 270.099842 157.7755 
L 268.868042 153.019 
L 268.649219 152.121018 
L 267.933119 148.2625 
L 267.133609 143.506 
L 266.404018 138.7495 
L 265.729582 133.993 
L 265.098087 129.2365 
L 264.499094 124.48 
L 263.92335 119.7235 
L 263.766719 118.388342 
L 263.495101 114.967 
L 263.144455 110.2105 
L 262.819463 105.454 
L 262.516799 100.6975 
L 262.233626 95.941 
L 261.967503 91.1845 
L 261.716309 86.428 
L 261.478187 81.6715 
L 261.251491 76.915 
L 261.034756 72.1585 
L 260.826656 67.402 
L 260.625981 62.6455 
L 260.431614 57.889 
L 260.242508 53.1325 
L 260.05767 48.376 
L 259.876139 43.6195 
L 259.696973 38.863 
L 259.51923 34.1065 
L 259.341953 29.35 
" style="fill:none;stroke:#0028ff;stroke-width:1.5;"/>
    <path clip-path="url(#p29cebb73df)" d="M 273.073984 29.35 
L 273.531719 32.425323 
L 273.667689 34.1065 
L 274.071002 38.863 
L 274.519926 43.6195 
L 275.023594 48.376 
L 275.593893 53.1325 
L 276.246627 57.889 
L 277.003312 62.6455 
L 277.894066 67.402 
L 278.414219 69.883652 
L 278.7214 72.1585 
L 279.415757 76.915 
L 280.218098 81.6715 
L 281.15901 86.428 
L 282.282561 91.1845 
L 283.296719 94.839212 
L 283.519888 95.941 
L 284.546639 100.6975 
L 285.774297 105.454 
L 287.276482 110.2105 
L 288.179219 112.698061 
L 288.834771 114.967 
L 290.384936 119.7235 
L 292.329344 124.48 
L 293.061719 126.072578 
L 294.306892 129.2365 
L 296.552143 133.993 
L 297.944219 136.493035 
L 299.090707 138.7495 
L 301.94646 143.506 
L 302.826719 144.803227 
L 305.091067 148.2625 
L 307.709219 151.623663 
L 308.806924 153.019 
L 312.591719 157.251262 
L 313.084476 157.7755 
L 317.474219 162.051959 
L 318.012344 162.532 
L 322.356719 166.219123 
L 323.789018 167.2885 
L 327.239219 169.839087 
L 330.790128 172.045 
L 332.121719 172.902542 
L 337.004219 175.684598 
L 339.320458 176.8015 
L 341.886719 178.157651 
L 346.769219 180.34496 
L 350.016953 181.558 
L 351.651719 182.271475 
L 356.534219 184.165704 
L 361.416719 185.675865 
L 363.745762 186.3145 
L 366.299219 187.193941 
L 371.181719 188.657359 
L 376.064219 189.853336 
L 380.946719 190.85359 
L 382.077693 191.071 
L 385.829219 192.058986 
L 390.711719 193.153542 
L 395.594219 194.070172 
L 400.476719 194.851808 
L 405.359219 195.528246 
L 407.694327 195.8275 
L 410.241719 196.334229 
L 415.124219 197.201996 
L 420.006719 197.939154 
L 424.889219 198.575043 
L 429.771719 199.130625 
L 434.654219 199.621294 
L 439.536719 200.058634 
L 444.419219 200.451538 
L 446.14493 200.584 
L 449.301719 201.029922 
" style="fill:none;stroke:#0028ff;stroke-width:1.5;"/>
   </g>
   <g id="LineCollection_3">
    <path clip-path="url(#p29cebb73df)" d="M 232.183047 409.87 
L 231.599757 405.1135 
L 230.946474 400.357 
L 230.209329 395.6005 
L 229.589219 391.997091 
L 229.450826 390.844 
L 228.854016 386.0875 
L 228.186202 381.331 
L 227.433439 376.5745 
L 226.577808 371.818 
L 225.595868 367.0615 
L 224.706719 363.26012 
L 224.535403 362.305 
L 223.637572 357.5485 
L 222.605713 352.792 
L 221.406211 348.0355 
L 219.992956 343.279 
L 219.824219 342.742325 
L 218.736119 338.5225 
L 217.311766 333.766 
L 215.609311 329.0095 
L 214.941719 327.314997 
L 213.890731 324.253 
L 212.015477 319.4965 
L 210.059219 315.365444 
L 209.787969 314.74 
L 207.570884 309.9835 
L 205.176719 305.786588 
L 204.871943 305.227 
L 202.066846 300.4705 
L 200.294219 297.899921 
L 198.7975 295.714 
L 195.411719 291.418401 
L 195.039719 290.9575 
L 190.817519 286.201 
L 190.529219 285.900538 
L 185.95514 281.4445 
L 185.646719 281.16364 
L 180.764219 277.0504 
L 180.291108 276.688 
L 175.881719 273.389594 
L 173.637893 271.9315 
L 170.999219 270.204618 
L 166.116719 267.47191 
L 165.542307 267.175 
L 161.234219 264.84262 
L 156.351719 262.68275 
L 155.709707 262.4185 
L 151.469219 260.512726 
L 146.586719 258.685865 
L 143.443609 257.662 
L 141.704219 257.011636 
L 136.821719 255.353116 
L 131.939219 253.96552 
L 127.60761 252.9055 
L 127.056719 252.741117 
L 122.174219 251.364333 
L 117.291719 250.195787 
L 112.409219 249.190556 
L 107.526719 248.315895 
L 106.546297 248.149 
L 102.644219 247.282797 
L 97.761719 246.326197 
L 92.879219 245.492646 
L 87.996719 244.75931 
L 83.114219 244.10873 
L 78.231719 243.527321 
L 77.048082 243.3925 
L 73.349219 242.788393 
L 68.466719 242.070271 
L 63.584219 241.433846 
L 58.701719 240.865609 
" style="fill:none;stroke:#00d4ff;stroke-width:1.5;"/>
    <path clip-path="url(#p29cebb73df)" d="M 58.701719 222.136891 
L 63.584219 222.185585 
L 68.466719 222.237047 
L 73.349219 222.291496 
L 78.231719 222.349177 
L 83.114219 222.410364 
L 87.996719 222.475361 
L 92.879219 222.544513 
L 97.761719 222.618203 
L 102.644219 222.696868 
L 107.526719 222.781 
L 112.409219 222.871162 
L 117.291719 222.967994 
L 122.174219 223.072235 
L 127.056719 223.184735 
L 131.939219 223.30648 
L 136.821719 223.438622 
L 141.704219 223.582513 
L 146.586719 223.73975 
L 151.469219 223.912235 
L 156.351719 224.10225 
L 161.234219 224.312559 
L 162.402424 224.3665 
L 166.116719 224.590932 
L 170.999219 224.909188 
L 175.881719 225.258344 
L 180.764219 225.645129 
L 185.646719 226.078152 
L 190.529219 226.568625 
L 195.411719 227.131457 
L 200.294219 227.786934 
L 205.176719 228.563412 
L 208.190608 229.123 
L 210.059219 229.5458 
L 214.941719 230.817503 
L 219.824219 232.401073 
L 223.45324 233.8795 
L 224.706719 234.501658 
L 229.589219 237.482909 
L 231.077786 238.636 
L 234.471719 241.942348 
L 235.655355 243.3925 
L 238.71558 248.149 
L 239.354219 249.37013 
L 240.87181 252.9055 
L 242.497328 257.662 
L 243.802719 262.4185 
L 244.236719 264.238889 
L 244.811131 267.175 
L 245.608178 271.9315 
L 246.281018 276.688 
L 246.858759 281.4445 
L 247.362225 286.201 
L 247.806719 290.9575 
L 248.20375 295.714 
L 248.562155 300.4705 
L 248.888842 305.227 
L 249.119219 308.845442 
L 249.174589 309.9835 
L 249.390469 314.74 
L 249.585518 319.4965 
L 249.762572 324.253 
L 249.923974 329.0095 
L 250.071676 333.766 
L 250.207319 338.5225 
L 250.332289 343.279 
L 250.447769 348.0355 
L 250.554771 352.792 
L 250.654169 357.5485 
L 250.746719 362.305 
L 250.83308 367.0615 
L 250.913828 371.818 
L 250.989471 376.5745 
L 251.060454 381.331 
L 251.127173 386.0875 
L 251.189981 390.844 
L 251.24919 395.6005 
L 251.305081 400.357 
L 251.357906 405.1135 
L 251.407891 409.87 
" style="fill:none;stroke:#00d4ff;stroke-width:1.5;"/>
    <path clip-path="url(#p29cebb73df)" d="M 449.301719 217.083109 
L 444.419219 217.034415 
L 439.536719 216.982953 
L 434.654219 216.928504 
L 429.771719 216.870823 
L 424.889219 216.809636 
L 420.006719 216.744639 
L 415.124219 216.675487 
L 410.241719 216.601797 
L 405.359219 216.523132 
L 400.476719 216.439 
L 395.594219 216.348838 
L 390.711719 216.252006 
L 385.829219 216.147765 
L 380.946719 216.035265 
L 376.064219 215.91352 
L 371.181719 215.781378 
L 366.299219 215.637487 
L 361.416719 215.48025 
L 356.534219 215.307765 
L 351.651719 215.11775 
L 346.769219 214.907441 
L 345.601013 214.8535 
L 341.886719 214.629068 
L 337.004219 214.310812 
L 332.121719 213.961656 
L 327.239219 213.574871 
L 322.356719 213.141848 
L 317.474219 212.651375 
L 312.591719 212.088543 
L 307.709219 211.433066 
L 302.826719 210.656588 
L 299.81283 210.097 
L 297.944219 209.6742 
L 293.061719 208.402497 
L 288.179219 206.818927 
L 284.550197 205.3405 
L 283.296719 204.718342 
L 278.414219 201.737091 
L 276.925652 200.584 
L 273.531719 197.277652 
L 272.348082 195.8275 
L 269.287858 191.071 
L 268.649219 189.84987 
L 267.131628 186.3145 
L 265.506109 181.558 
L 264.200719 176.8015 
L 263.766719 174.981111 
L 263.192307 172.045 
L 262.39526 167.2885 
L 261.72242 162.532 
L 261.144679 157.7755 
L 260.641212 153.019 
L 260.196719 148.2625 
L 259.799688 143.506 
L 259.441283 138.7495 
L 259.114595 133.993 
L 258.884219 130.374558 
L 258.828849 129.2365 
L 258.612969 124.48 
L 258.41792 119.7235 
L 258.240866 114.967 
L 258.079464 110.2105 
L 257.931761 105.454 
L 257.796119 100.6975 
L 257.671148 95.941 
L 257.555669 91.1845 
L 257.448666 86.428 
L 257.349269 81.6715 
L 257.256719 76.915 
L 257.170358 72.1585 
L 257.089609 67.402 
L 257.013967 62.6455 
L 256.942984 57.889 
L 256.876264 53.1325 
L 256.813457 48.376 
L 256.754247 43.6195 
L 256.698356 38.863 
L 256.645531 34.1065 
L 256.595547 29.35 
" style="fill:none;stroke:#00d4ff;stroke-width:1.5;"/>
    <path clip-path="url(#p29cebb73df)" d="M 275.820391 29.35 
L 276.40368 34.1065 
L 277.056963 38.863 
L 277.794109 43.6195 
L 278.414219 47.222909 
L 278.552612 48.376 
L 279.149421 53.1325 
L 279.817236 57.889 
L 280.569998 62.6455 
L 281.425629 67.402 
L 282.40757 72.1585 
L 283.296719 75.95988 
L 283.468035 76.915 
L 284.365865 81.6715 
L 285.397725 86.428 
L 286.597226 91.1845 
L 288.010481 95.941 
L 288.179219 96.477675 
L 289.267319 100.6975 
L 290.691672 105.454 
L 292.394127 110.2105 
L 293.061719 111.905003 
L 294.112706 114.967 
L 295.987961 119.7235 
L 297.944219 123.854556 
L 298.215469 124.48 
L 300.432554 129.2365 
L 302.826719 133.433412 
L 303.131494 133.993 
L 305.936591 138.7495 
L 307.709219 141.320079 
L 309.205937 143.506 
L 312.591719 147.801599 
L 312.963719 148.2625 
L 317.185919 153.019 
L 317.474219 153.319462 
L 322.048298 157.7755 
L 322.356719 158.05636 
L 327.239219 162.1696 
L 327.712329 162.532 
L 332.121719 165.830406 
L 334.365545 167.2885 
L 337.004219 169.015382 
L 341.886719 171.74809 
L 342.461131 172.045 
L 346.769219 174.37738 
L 351.651719 176.53725 
L 352.293731 176.8015 
L 356.534219 178.707274 
L 361.416719 180.534135 
L 364.559828 181.558 
L 366.299219 182.208364 
L 371.181719 183.866884 
L 376.064219 185.25448 
L 380.395827 186.3145 
L 380.946719 186.478883 
L 385.829219 187.855667 
L 390.711719 189.024213 
L 395.594219 190.029444 
L 400.476719 190.904105 
L 401.45714 191.071 
L 405.359219 191.937203 
L 410.241719 192.893803 
L 415.124219 193.727354 
L 420.006719 194.46069 
L 424.889219 195.11127 
L 429.771719 195.692679 
L 430.955355 195.8275 
L 434.654219 196.431607 
L 439.536719 197.149729 
L 444.419219 197.786154 
L 449.301719 198.354391 
" style="fill:none;stroke:#00d4ff;stroke-width:1.5;"/>
   </g>
   <g id="LineCollection_4">
    <path clip-path="url(#p29cebb73df)" d="M 229.665508 409.87 
L 229.589219 409.382154 
L 229.110864 405.1135 
L 228.528318 400.357 
L 227.883946 395.6005 
L 227.167344 390.844 
L 226.365638 386.0875 
L 225.462697 381.331 
L 224.706719 377.736153 
L 224.515476 376.5745 
L 223.692357 371.818 
L 222.76396 367.0615 
L 221.708692 362.305 
L 220.498618 357.5485 
L 219.824219 355.127568 
L 219.282071 352.792 
L 218.078515 348.0355 
L 216.685186 343.279 
L 215.053319 338.5225 
L 214.941719 338.212832 
L 213.537218 333.766 
L 211.78082 329.0095 
L 210.059219 325.016102 
L 209.75788 324.253 
L 207.747071 319.4965 
L 205.312344 314.74 
L 205.176719 314.489658 
L 202.852334 309.9835 
L 200.294219 305.845324 
L 199.919032 305.227 
L 196.789104 300.4705 
L 195.411719 298.618054 
L 193.220697 295.714 
L 190.529219 292.534589 
L 189.139889 290.9575 
L 185.646719 287.329102 
L 184.488733 286.201 
L 180.764219 282.797976 
L 179.145353 281.4445 
L 175.881719 278.822479 
L 172.900737 276.688 
L 170.999219 275.34616 
L 166.116719 272.297005 
L 165.482015 271.9315 
L 161.234219 269.439401 
L 156.608692 267.175 
L 156.351719 267.042875 
L 151.469219 264.67098 
L 146.586719 262.712062 
L 145.803402 262.4185 
L 141.704219 260.741328 
L 136.821719 259.030256 
L 132.25709 257.662 
L 131.939219 257.55328 
L 127.056719 255.963525 
L 122.174219 254.606153 
L 117.291719 253.433657 
L 114.894282 252.9055 
L 112.409219 252.248504 
L 107.526719 251.069658 
L 102.644219 250.041623 
L 97.761719 249.137185 
L 92.879219 248.335307 
L 91.686793 248.149 
L 87.996719 247.41253 
L 83.114219 246.532892 
L 78.231719 245.751875 
L 73.349219 245.053766 
L 68.466719 244.426022 
L 63.584219 243.85851 
L 59.202488 243.3925 
L 58.701719 243.31818 
" style="fill:none;stroke:#7dff7a;stroke-width:1.5;"/>
    <path clip-path="url(#p29cebb73df)" d="M 58.701719 219.68432 
L 63.584219 219.685753 
L 68.466719 219.687266 
L 73.349219 219.688868 
L 78.231719 219.690564 
L 83.114219 219.692364 
L 87.996719 219.694275 
L 92.879219 219.696309 
L 97.761719 219.698477 
L 102.644219 219.70079 
L 107.526719 219.703265 
L 112.409219 219.705917 
L 117.291719 219.708765 
L 122.174219 219.71183 
L 127.056719 219.715139 
L 131.939219 219.71872 
L 136.821719 219.722607 
L 141.704219 219.726839 
L 146.586719 219.731463 
L 151.469219 219.736536 
L 156.351719 219.742125 
L 161.234219 219.748311 
L 166.116719 219.755192 
L 170.999219 219.762893 
L 175.881719 219.771566 
L 180.764219 219.781405 
L 185.646719 219.792661 
L 190.529219 219.80566 
L 195.411719 219.820838 
L 200.294219 219.838788 
L 205.176719 219.860342 
L 210.059219 219.886702 
L 214.941719 219.919668 
L 219.824219 219.962073 
L 224.706719 220.018634 
L 229.589219 220.097846 
L 234.471719 220.216696 
L 239.354219 220.414822 
L 244.236719 220.811136 
L 249.119219 222.000201 
L 251.548201 224.3665 
L 252.768764 229.123 
L 253.175577 233.8795 
L 253.378951 238.636 
L 253.50095 243.3925 
L 253.58226 248.149 
L 253.64032 252.9055 
L 253.683848 257.662 
L 253.717687 262.4185 
L 253.744745 267.175 
L 253.76687 271.9315 
L 253.785296 276.688 
L 253.800875 281.4445 
L 253.814219 286.201 
L 253.825773 290.9575 
L 253.835873 295.714 
L 253.844776 300.4705 
L 253.85268 305.227 
L 253.859744 309.9835 
L 253.866094 314.74 
L 253.87183 319.4965 
L 253.877038 324.253 
L 253.881785 329.0095 
L 253.886129 333.766 
L 253.890119 338.5225 
L 253.893794 343.279 
L 253.897191 348.0355 
L 253.900338 352.792 
L 253.903261 357.5485 
L 253.905983 362.305 
L 253.908523 367.0615 
L 253.910898 371.818 
L 253.913123 376.5745 
L 253.915211 381.331 
L 253.917173 386.0875 
L 253.919021 390.844 
L 253.920762 395.6005 
L 253.922406 400.357 
L 253.92396 405.1135 
L 253.92543 409.87 
" style="fill:none;stroke:#7dff7a;stroke-width:1.5;"/>
    <path clip-path="url(#p29cebb73df)" d="M 449.301719 219.53568 
L 444.419219 219.534247 
L 439.536719 219.532734 
L 434.654219 219.531132 
L 429.771719 219.529436 
L 424.889219 219.527636 
L 420.006719 219.525725 
L 415.124219 219.523691 
L 410.241719 219.521523 
L 405.359219 219.51921 
L 400.476719 219.516735 
L 395.594219 219.514083 
L 390.711719 219.511235 
L 385.829219 219.50817 
L 380.946719 219.504861 
L 376.064219 219.50128 
L 371.181719 219.497393 
L 366.299219 219.493161 
L 361.416719 219.488537 
L 356.534219 219.483464 
L 351.651719 219.477875 
L 346.769219 219.471689 
L 341.886719 219.464808 
L 337.004219 219.457107 
L 332.121719 219.448434 
L 327.239219 219.438595 
L 322.356719 219.427339 
L 317.474219 219.41434 
L 312.591719 219.399162 
L 307.709219 219.381212 
L 302.826719 219.359658 
L 297.944219 219.333298 
L 293.061719 219.300332 
L 288.179219 219.257927 
L 283.296719 219.201366 
L 278.414219 219.122154 
L 273.531719 219.003304 
L 268.649219 218.805178 
L 263.766719 218.408864 
L 258.884219 217.219799 
L 256.455236 214.8535 
L 255.234673 210.097 
L 254.827861 205.3405 
L 254.624487 200.584 
L 254.502488 195.8275 
L 254.421178 191.071 
L 254.363118 186.3145 
L 254.31959 181.558 
L 254.28575 176.8015 
L 254.258692 172.045 
L 254.236567 167.2885 
L 254.218142 162.532 
L 254.202562 157.7755 
L 254.189219 153.019 
L 254.177665 148.2625 
L 254.167565 143.506 
L 254.158662 138.7495 
L 254.150757 133.993 
L 254.143693 129.2365 
L 254.137344 124.48 
L 254.131607 119.7235 
L 254.1264 114.967 
L 254.121652 110.2105 
L 254.117308 105.454 
L 254.113319 100.6975 
L 254.109643 95.941 
L 254.106247 91.1845 
L 254.1031 86.428 
L 254.100176 81.6715 
L 254.097454 76.915 
L 254.094914 72.1585 
L 254.092539 67.402 
L 254.090314 62.6455 
L 254.088227 57.889 
L 254.086264 53.1325 
L 254.084417 48.376 
L 254.082675 43.6195 
L 254.081032 38.863 
L 254.079478 34.1065 
L 254.078008 29.35 
" style="fill:none;stroke:#7dff7a;stroke-width:1.5;"/>
    <path clip-path="url(#p29cebb73df)" d="M 278.33793 29.35 
L 278.414219 29.837846 
L 278.892574 34.1065 
L 279.475119 38.863 
L 280.119492 43.6195 
L 280.836094 48.376 
L 281.6378 53.1325 
L 282.54074 57.889 
L 283.296719 61.483847 
L 283.487961 62.6455 
L 284.311081 67.402 
L 285.239477 72.1585 
L 286.294745 76.915 
L 287.504819 81.6715 
L 288.179219 84.092432 
L 288.721366 86.428 
L 289.924922 91.1845 
L 291.318251 95.941 
L 292.950119 100.6975 
L 293.061719 101.007168 
L 294.46622 105.454 
L 296.222618 110.2105 
L 297.944219 114.203898 
L 298.245557 114.967 
L 300.256367 119.7235 
L 302.691094 124.48 
L 302.826719 124.730342 
L 305.151104 129.2365 
L 307.709219 133.374676 
L 308.084406 133.993 
L 311.214333 138.7495 
L 312.591719 140.601946 
L 314.782741 143.506 
L 317.474219 146.685411 
L 318.863548 148.2625 
L 322.356719 151.890898 
L 323.514704 153.019 
L 327.239219 156.422024 
L 328.858085 157.7755 
L 332.121719 160.397521 
L 335.102701 162.532 
L 337.004219 163.87384 
L 341.886719 166.922995 
L 342.521422 167.2885 
L 346.769219 169.780599 
L 351.394745 172.045 
L 351.651719 172.177125 
L 356.534219 174.54902 
L 361.416719 176.507938 
L 362.200036 176.8015 
L 366.299219 178.478672 
L 371.181719 180.189744 
L 375.746348 181.558 
L 376.064219 181.66672 
L 380.946719 183.256475 
L 385.829219 184.613847 
L 390.711719 185.786343 
L 393.109156 186.3145 
L 395.594219 186.971496 
L 400.476719 188.150342 
L 405.359219 189.178377 
L 410.241719 190.082815 
L 415.124219 190.884693 
L 416.316644 191.071 
L 420.006719 191.80747 
L 424.889219 192.687108 
L 429.771719 193.468125 
L 434.654219 194.166234 
L 439.536719 194.793978 
L 444.419219 195.36149 
L 448.80095 195.8275 
L 449.301719 195.90182 
" style="fill:none;stroke:#7dff7a;stroke-width:1.5;"/>
   </g>
   <g id="LineCollection_5">
    <path clip-path="url(#p29cebb73df)" d="M 227.961719 409.87 
L 227.306783 405.1135 
L 226.583334 400.357 
L 225.780244 395.6005 
L 224.883862 390.844 
L 224.706719 389.946018 
L 224.104954 386.0875 
L 223.292052 381.331 
L 222.38338 376.5745 
L 221.361302 371.818 
L 220.203615 367.0615 
L 219.824219 365.597731 
L 219.108119 362.305 
L 217.967937 357.5485 
L 216.666446 352.792 
L 215.16754 348.0355 
L 214.941719 347.356 
L 213.749805 343.279 
L 212.164119 338.5225 
L 210.309603 333.766 
L 210.059219 333.159291 
L 208.490835 329.0095 
L 206.398362 324.253 
L 205.176719 321.771348 
L 204.115515 319.4965 
L 201.62581 314.74 
L 200.294219 312.474101 
L 198.864057 309.9835 
L 195.736205 305.227 
L 195.411719 304.765764 
L 192.368613 300.4705 
L 190.529219 298.168143 
L 188.508874 295.714 
L 185.646719 292.554615 
L 184.123102 290.9575 
L 180.764219 287.685298 
L 179.124796 286.201 
L 175.881719 283.412707 
L 173.362565 281.4445 
L 170.999219 279.652574 
L 166.590173 276.688 
L 166.116719 276.371888 
L 161.234219 273.324754 
L 158.677642 271.9315 
L 156.351719 270.634273 
L 151.469219 268.208817 
L 149.13411 267.175 
L 146.586719 265.984883 
L 141.704219 263.946409 
L 137.444499 262.4185 
L 136.821719 262.174577 
L 131.939219 260.36792 
L 127.056719 258.823154 
L 122.871719 257.662 
L 122.174219 257.442007 
L 117.291719 255.981782 
L 112.409219 254.713877 
L 107.526719 253.60312 
L 104.146763 252.9055 
L 102.644219 252.535894 
L 97.761719 251.408083 
L 92.879219 250.412382 
L 87.996719 249.527159 
L 83.114219 248.735235 
L 79.153489 248.149 
L 78.231719 247.976429 
L 73.349219 247.103179 
L 68.466719 246.320814 
L 63.584219 245.616035 
L 58.701719 244.978 
" style="fill:none;stroke:#ffe600;stroke-width:1.5;"/>
    <path clip-path="url(#p29cebb73df)" d="M 449.301719 221.1955 
L 444.419219 221.242958 
L 439.536719 221.292972 
L 434.654219 221.345751 
L 429.771719 221.401525 
L 424.889219 221.460553 
L 420.006719 221.523122 
L 415.124219 221.589555 
L 410.241719 221.660216 
L 405.359219 221.735513 
L 400.476719 221.815913 
L 395.594219 221.901944 
L 390.711719 221.994211 
L 385.829219 222.093407 
L 380.946719 222.200334 
L 376.064219 222.31592 
L 371.181719 222.44125 
L 366.299219 222.577596 
L 361.416719 222.726462 
L 356.534219 222.889638 
L 351.651719 223.069273 
L 346.769219 223.267967 
L 341.886719 223.488899 
L 337.004219 223.735996 
L 332.121719 224.014167 
L 327.239219 224.329628 
L 326.706195 224.3665 
L 322.356719 224.652901 
L 317.474219 225.026317 
L 312.591719 225.468288 
L 307.709219 225.997777 
L 302.826719 226.641348 
L 297.944219 227.437388 
L 293.061719 228.4435 
L 290.344501 229.123 
L 288.179219 229.712864 
L 283.296719 231.384061 
L 278.414219 233.7738 
L 278.234979 233.8795 
L 273.531719 237.300842 
L 272.161192 238.636 
L 268.649219 243.217885 
L 268.540719 243.3925 
L 266.087675 248.149 
L 264.372208 252.9055 
L 263.766719 255.014904 
L 263.069219 257.662 
L 262.036454 262.4185 
L 261.219327 267.175 
L 260.558709 271.9315 
L 260.015193 276.688 
L 259.561514 281.4445 
L 259.178206 286.201 
L 258.884219 290.438231 
L 258.84637 290.9575 
L 258.522552 295.714 
L 258.237013 300.4705 
L 257.98337 305.227 
L 257.756585 309.9835 
L 257.552628 314.74 
L 257.368235 319.4965 
L 257.200736 324.253 
L 257.047927 329.0095 
L 256.907969 333.766 
L 256.779319 338.5225 
L 256.66067 343.279 
L 256.550911 348.0355 
L 256.449087 352.792 
L 256.354376 357.5485 
L 256.266067 362.305 
L 256.183537 367.0615 
L 256.106245 371.818 
L 256.033713 376.5745 
L 255.96552 381.331 
L 255.901293 386.0875 
L 255.840702 390.844 
L 255.78345 395.6005 
L 255.729273 400.357 
L 255.677934 405.1135 
L 255.629219 409.87 
" style="fill:none;stroke:#ffe600;stroke-width:1.5;"/>
    <path clip-path="url(#p29cebb73df)" d="M 58.701719 218.0245 
L 63.584219 217.977042 
L 68.466719 217.927028 
L 73.349219 217.874249 
L 78.231719 217.818475 
L 83.114219 217.759447 
L 87.996719 217.696878 
L 92.879219 217.630445 
L 97.761719 217.559784 
L 102.644219 217.484487 
L 107.526719 217.404087 
L 112.409219 217.318056 
L 117.291719 217.225789 
L 122.174219 217.126593 
L 127.056719 217.019666 
L 131.939219 216.90408 
L 136.821719 216.77875 
L 141.704219 216.642404 
L 146.586719 216.493538 
L 151.469219 216.330362 
L 156.351719 216.150727 
L 161.234219 215.952033 
L 166.116719 215.731101 
L 170.999219 215.484004 
L 175.881719 215.205833 
L 180.764219 214.890372 
L 181.297243 214.8535 
L 185.646719 214.567099 
L 190.529219 214.193683 
L 195.411719 213.751712 
L 200.294219 213.222223 
L 205.176719 212.578652 
L 210.059219 211.782612 
L 214.941719 210.7765 
L 217.658936 210.097 
L 219.824219 209.507136 
L 224.706719 207.835939 
L 229.589219 205.4462 
L 229.768459 205.3405 
L 234.471719 201.919158 
L 235.842245 200.584 
L 239.354219 196.002115 
L 239.462719 195.8275 
L 241.915762 191.071 
L 243.631229 186.3145 
L 244.236719 184.205096 
L 244.934219 181.558 
L 245.966983 176.8015 
L 246.78411 172.045 
L 247.444729 167.2885 
L 247.988244 162.532 
L 248.441923 157.7755 
L 248.825231 153.019 
L 249.119219 148.781769 
L 249.157068 148.2625 
L 249.480885 143.506 
L 249.766425 138.7495 
L 250.020067 133.993 
L 250.246852 129.2365 
L 250.45081 124.48 
L 250.635203 119.7235 
L 250.802702 114.967 
L 250.955511 110.2105 
L 251.095469 105.454 
L 251.224119 100.6975 
L 251.342767 95.941 
L 251.452526 91.1845 
L 251.55435 86.428 
L 251.649061 81.6715 
L 251.737371 76.915 
L 251.819901 72.1585 
L 251.897193 67.402 
L 251.969725 62.6455 
L 252.037918 57.889 
L 252.102144 53.1325 
L 252.162736 48.376 
L 252.219988 43.6195 
L 252.274165 38.863 
L 252.325504 34.1065 
L 252.374219 29.35 
" style="fill:none;stroke:#ffe600;stroke-width:1.5;"/>
    <path clip-path="url(#p29cebb73df)" d="M 280.041719 29.35 
L 280.696655 34.1065 
L 281.420104 38.863 
L 282.223193 43.6195 
L 283.119576 48.376 
L 283.296719 49.273982 
L 283.898483 53.1325 
L 284.711386 57.889 
L 285.620057 62.6455 
L 286.642135 67.402 
L 287.799822 72.1585 
L 288.179219 73.622269 
L 288.895319 76.915 
L 290.0355 81.6715 
L 291.336991 86.428 
L 292.835898 91.1845 
L 293.061719 91.864 
L 294.253632 95.941 
L 295.839319 100.6975 
L 297.693834 105.454 
L 297.944219 106.060709 
L 299.512602 110.2105 
L 301.605076 114.967 
L 302.826719 117.448652 
L 303.887922 119.7235 
L 306.377628 124.48 
L 307.709219 126.745899 
L 309.13938 129.2365 
L 312.267233 133.993 
L 312.591719 134.454236 
L 315.634825 138.7495 
L 317.474219 141.051857 
L 319.494564 143.506 
L 322.356719 146.665385 
L 323.880336 148.2625 
L 327.239219 151.534702 
L 328.878642 153.019 
L 332.121719 155.807293 
L 334.640872 157.7755 
L 337.004219 159.567426 
L 341.413264 162.532 
L 341.886719 162.848112 
L 346.769219 165.895246 
L 349.325796 167.2885 
L 351.651719 168.585727 
L 356.534219 171.011183 
L 358.869327 172.045 
L 361.416719 173.235117 
L 366.299219 175.273591 
L 370.558938 176.8015 
L 371.181719 177.045423 
L 376.064219 178.85208 
L 380.946719 180.396846 
L 385.131719 181.558 
L 385.829219 181.777993 
L 390.711719 183.238218 
L 395.594219 184.506123 
L 400.476719 185.61688 
L 403.856675 186.3145 
L 405.359219 186.684106 
L 410.241719 187.811917 
L 415.124219 188.807618 
L 420.006719 189.692841 
L 424.889219 190.484765 
L 428.849949 191.071 
L 429.771719 191.243571 
L 434.654219 192.116821 
L 439.536719 192.899186 
L 444.419219 193.603965 
L 449.301719 194.242 
" style="fill:none;stroke:#ffe600;stroke-width:1.5;"/>
   </g>
   <g id="LineCollection_6">
    <path clip-path="url(#p29cebb73df)" d="M 226.283359 409.87 
L 225.502701 405.1135 
L 224.706719 400.707989 
L 224.656023 400.357 
L 223.947834 395.6005 
L 223.166262 390.844 
L 222.29966 386.0875 
L 221.33383 381.331 
L 220.251284 376.5745 
L 219.824219 374.813129 
L 219.211727 371.818 
L 218.15353 367.0615 
L 216.959819 362.305 
L 215.603704 357.5485 
L 214.941719 355.402501 
L 214.231583 352.792 
L 212.816403 348.0355 
L 211.189053 343.279 
L 210.059219 340.307973 
L 209.43781 338.5225 
L 207.64022 333.766 
L 205.535002 329.0095 
L 205.176719 328.24846 
L 203.397876 324.253 
L 200.931905 319.4965 
L 200.294219 318.357765 
L 198.32244 314.74 
L 195.411719 310.155065 
L 195.303323 309.9835 
L 192.108979 305.227 
L 190.529219 303.137871 
L 188.467768 300.4705 
L 185.646719 297.171553 
L 184.347493 295.714 
L 180.764219 292.004528 
L 179.689455 290.9575 
L 175.881719 287.466697 
L 174.385555 286.201 
L 170.999219 283.452752 
L 168.261189 281.4445 
L 166.116719 279.905508 
L 161.234219 276.793599 
L 161.058109 276.688 
L 156.351719 273.852394 
L 152.638119 271.9315 
L 151.469219 271.31027 
L 146.586719 268.907937 
L 142.485419 267.175 
L 141.704219 266.825963 
L 136.821719 264.775073 
L 131.939219 263.023873 
L 130.106448 262.4185 
L 127.056719 261.317822 
L 122.174219 259.732468 
L 117.291719 258.35381 
L 114.612065 257.662 
L 112.409219 257.017098 
L 107.526719 255.69598 
L 102.644219 254.533074 
L 97.761719 253.502186 
L 94.687248 252.9055 
L 92.879219 252.489456 
L 87.996719 251.434847 
L 83.114219 250.493941 
L 78.231719 249.649703 
L 73.349219 248.8883 
L 68.466719 248.198387 
L 68.106432 248.149 
L 63.584219 247.373559 
L 58.701719 246.613047 
" style="fill:none;stroke:#ff4700;stroke-width:1.5;"/>
    <path clip-path="url(#p29cebb73df)" d="M 449.301719 222.830547 
L 444.419219 222.926946 
L 439.536719 223.028537 
L 434.654219 223.135744 
L 429.771719 223.249036 
L 424.889219 223.368936 
L 420.006719 223.496029 
L 415.124219 223.630972 
L 410.241719 223.7745 
L 405.359219 223.927449 
L 400.476719 224.090761 
L 395.594219 224.265511 
L 392.915493 224.3665 
L 390.711719 224.435886 
L 385.829219 224.59909 
L 380.946719 224.777133 
L 376.064219 224.971873 
L 371.181719 225.185481 
L 366.299219 225.42051 
L 361.416719 225.679983 
L 356.534219 225.967502 
L 351.651719 226.287394 
L 346.769219 226.644905 
L 341.886719 227.046453 
L 337.004219 227.499971 
L 332.121719 228.015388 
L 327.239219 228.605286 
L 323.454335 229.123 
L 322.356719 229.268967 
L 317.474219 229.984555 
L 312.591719 230.83656 
L 307.709219 231.863287 
L 302.826719 233.11846 
L 300.293645 233.8795 
L 297.944219 234.625027 
L 293.061719 236.490001 
L 288.723805 238.636 
L 288.179219 238.935703 
L 283.296719 242.144075 
L 281.764954 243.3925 
L 278.414219 246.656765 
L 277.132723 248.149 
L 273.839361 252.9055 
L 273.531719 253.436033 
L 271.328872 257.662 
L 269.414494 262.4185 
L 268.649219 264.707296 
L 267.868019 267.175 
L 266.579596 271.9315 
L 265.525671 276.688 
L 264.651096 281.4445 
L 263.916552 286.201 
L 263.766719 287.270291 
L 263.23529 290.9575 
L 262.629766 295.714 
L 262.100696 300.4705 
L 261.635164 305.227 
L 261.222979 309.9835 
L 260.855998 314.74 
L 260.527631 319.4965 
L 260.232496 324.253 
L 259.96615 329.0095 
L 259.724894 333.766 
L 259.505628 338.5225 
L 259.30573 343.279 
L 259.12297 348.0355 
L 258.955442 352.792 
L 258.884219 354.938903 
L 258.780555 357.5485 
L 258.601175 362.305 
L 258.433537 367.0615 
L 258.276537 371.818 
L 258.129206 376.5745 
L 257.990689 381.331 
L 257.860229 386.0875 
L 257.737153 390.844 
L 257.62086 395.6005 
L 257.510813 400.357 
L 257.40653 405.1135 
L 257.307578 409.87 
" style="fill:none;stroke:#ff4700;stroke-width:1.5;"/>
    <path clip-path="url(#p29cebb73df)" d="M 58.701719 216.389453 
L 63.584219 216.293054 
L 68.466719 216.191463 
L 73.349219 216.084256 
L 78.231719 215.970964 
L 83.114219 215.851064 
L 87.996719 215.723971 
L 92.879219 215.589028 
L 97.761719 215.4455 
L 102.644219 215.292551 
L 107.526719 215.129239 
L 112.409219 214.954489 
L 115.087944 214.8535 
L 117.291719 214.784114 
L 122.174219 214.62091 
L 127.056719 214.442867 
L 131.939219 214.248127 
L 136.821719 214.034519 
L 141.704219 213.79949 
L 146.586719 213.540017 
L 151.469219 213.252498 
L 156.351719 212.932606 
L 161.234219 212.575095 
L 166.116719 212.173547 
L 170.999219 211.720029 
L 175.881719 211.204612 
L 180.764219 210.614714 
L 184.549102 210.097 
L 185.646719 209.951033 
L 190.529219 209.235445 
L 195.411719 208.38344 
L 200.294219 207.356713 
L 205.176719 206.10154 
L 207.709793 205.3405 
L 210.059219 204.594973 
L 214.941719 202.729999 
L 219.279632 200.584 
L 219.824219 200.284297 
L 224.706719 197.075925 
L 226.238483 195.8275 
L 229.589219 192.563235 
L 230.870715 191.071 
L 234.164076 186.3145 
L 234.471719 185.783967 
L 236.674565 181.558 
L 238.588943 176.8015 
L 239.354219 174.512704 
L 240.135419 172.045 
L 241.423842 167.2885 
L 242.477767 162.532 
L 243.352341 157.7755 
L 244.086885 153.019 
L 244.236719 151.949709 
L 244.768147 148.2625 
L 245.373672 143.506 
L 245.902742 138.7495 
L 246.368274 133.993 
L 246.780458 129.2365 
L 247.14744 124.48 
L 247.475806 119.7235 
L 247.770941 114.967 
L 248.037288 110.2105 
L 248.278543 105.454 
L 248.49781 100.6975 
L 248.697708 95.941 
L 248.880467 91.1845 
L 249.047995 86.428 
L 249.119219 84.281097 
L 249.222883 81.6715 
L 249.402262 76.915 
L 249.569901 72.1585 
L 249.726901 67.402 
L 249.874231 62.6455 
L 250.012748 57.889 
L 250.143208 53.1325 
L 250.266284 48.376 
L 250.382577 43.6195 
L 250.492624 38.863 
L 250.596907 34.1065 
L 250.695859 29.35 
" style="fill:none;stroke:#ff4700;stroke-width:1.5;"/>
    <path clip-path="url(#p29cebb73df)" d="M 281.720078 29.35 
L 282.500736 34.1065 
L 283.296719 38.512011 
L 283.347414 38.863 
L 284.055603 43.6195 
L 284.837176 48.376 
L 285.703778 53.1325 
L 286.669608 57.889 
L 287.752153 62.6455 
L 288.179219 64.406871 
L 288.791711 67.402 
L 289.849907 72.1585 
L 291.043619 76.915 
L 292.399733 81.6715 
L 293.061719 83.817499 
L 293.771855 86.428 
L 295.187034 91.1845 
L 296.814384 95.941 
L 297.944219 98.912027 
L 298.565628 100.6975 
L 300.363218 105.454 
L 302.468436 110.2105 
L 302.826719 110.97154 
L 304.605562 114.967 
L 307.071532 119.7235 
L 307.709219 120.862235 
L 309.680998 124.48 
L 312.591719 129.064935 
L 312.700115 129.2365 
L 315.894459 133.993 
L 317.474219 136.082129 
L 319.535669 138.7495 
L 322.356719 142.048447 
L 323.655945 143.506 
L 327.239219 147.215472 
L 328.313983 148.2625 
L 332.121719 151.753303 
L 333.617883 153.019 
L 337.004219 155.767248 
L 339.742248 157.7755 
L 341.886719 159.314492 
L 346.769219 162.426401 
L 346.945329 162.532 
L 351.651719 165.367606 
L 355.365319 167.2885 
L 356.534219 167.90973 
L 361.416719 170.312063 
L 365.518019 172.045 
L 366.299219 172.394037 
L 371.181719 174.444927 
L 376.064219 176.196127 
L 377.896989 176.8015 
L 380.946719 177.902178 
L 385.829219 179.487532 
L 390.711719 180.86619 
L 393.391372 181.558 
L 395.594219 182.202902 
L 400.476719 183.52402 
L 405.359219 184.686926 
L 410.241719 185.717814 
L 413.316189 186.3145 
L 415.124219 186.730544 
L 420.006719 187.785153 
L 424.889219 188.726059 
L 429.771719 189.570297 
L 434.654219 190.3317 
L 439.536719 191.021613 
L 439.897005 191.071 
L 444.419219 191.846441 
L 449.301719 192.606953 
" style="fill:none;stroke:#ff4700;stroke-width:1.5;"/>
   </g>
   <g id="LineCollection_7">
    <path clip-path="url(#p29cebb73df)" d="M 224.63043 409.87 
L 223.954749 405.1135 
L 223.213824 400.357 
L 222.398133 395.6005 
L 221.496252 390.844 
L 220.494366 386.0875 
L 219.824219 383.146201 
L 219.474013 381.331 
L 218.500652 376.5745 
L 217.413484 371.818 
L 216.192209 367.0615 
L 214.941719 362.717891 
L 214.836719 362.305 
L 213.576435 357.5485 
L 212.146664 352.792 
L 210.512349 348.0355 
L 210.059219 346.797245 
L 208.881389 343.279 
L 207.09421 338.5225 
L 205.176719 334.094034 
L 205.042878 333.766 
L 203.001385 329.0095 
L 200.602552 324.253 
L 200.294219 323.676455 
L 198.126136 319.4965 
L 195.411719 315.01149 
L 195.248969 314.74 
L 192.219638 309.9835 
L 190.529219 307.628036 
L 188.78032 305.227 
L 185.646719 301.356193 
L 184.905669 300.4705 
L 180.764219 295.928983 
L 180.558032 295.714 
L 175.881719 291.158366 
L 175.661041 290.9575 
L 170.999219 286.922926 
L 170.090064 286.201 
L 166.116719 283.148266 
L 163.652079 281.4445 
L 161.234219 279.797704 
L 156.351719 276.84655 
L 156.073037 276.688 
L 151.469219 274.043633 
L 147.178537 271.9315 
L 146.586719 271.631124 
L 141.704219 269.294196 
L 136.821719 267.305387 
L 136.484995 267.175 
L 131.939219 265.306993 
L 127.056719 263.565934 
L 123.445275 262.4185 
L 122.174219 261.977063 
L 117.291719 260.384924 
L 112.409219 258.992051 
L 107.526719 257.76429 
L 107.102891 257.662 
L 102.644219 256.44378 
L 97.761719 255.254022 
L 92.879219 254.19491 
L 87.996719 253.246668 
L 86.133433 252.9055 
L 83.114219 252.252647 
L 78.231719 251.276616 
L 73.349219 250.39801 
L 68.466719 249.603368 
L 63.584219 248.881564 
L 58.701719 248.22332 
" style="fill:none;stroke:#800000;stroke-width:1.5;"/>
    <path clip-path="url(#p29cebb73df)" d="M 449.301719 224.44082 
L 444.419219 224.550789 
L 439.536719 224.667867 
L 434.654219 224.792671 
L 429.771719 224.925886 
L 424.889219 225.068279 
L 420.006719 225.220706 
L 415.124219 225.384132 
L 410.241719 225.559642 
L 405.359219 225.748467 
L 400.476719 225.952 
L 395.594219 226.171833 
L 390.711719 226.409785 
L 385.829219 226.667951 
L 380.946719 226.94875 
L 376.064219 227.254993 
L 371.181719 227.589961 
L 366.299219 227.957515 
L 361.416719 228.36222 
L 356.534219 228.809517 
L 353.383102 229.123 
L 351.651719 229.28155 
L 346.769219 229.764555 
L 341.886719 230.311214 
L 337.004219 230.933317 
L 332.121719 231.645644 
L 327.239219 232.466964 
L 322.356719 233.421467 
L 320.248498 233.8795 
L 317.474219 234.481764 
L 312.591719 235.699475 
L 307.709219 237.174863 
L 303.686314 238.636 
L 302.826719 238.964034 
L 297.944219 241.088541 
L 293.746982 243.3925 
L 293.061719 243.805391 
L 288.179219 247.256083 
L 287.113733 248.149 
L 283.296719 251.867511 
L 282.380148 252.9055 
L 278.838047 257.662 
L 278.414219 258.329579 
L 276.049228 262.4185 
L 273.868443 267.175 
L 273.531719 268.012412 
L 272.031876 271.9315 
L 270.517405 276.688 
L 269.267436 281.4445 
L 268.649219 284.147185 
L 268.179052 286.201 
L 267.199264 290.9575 
L 266.356188 295.714 
L 265.624991 300.4705 
L 264.986408 305.227 
L 264.425268 309.9835 
L 263.929469 314.74 
L 263.766719 316.426702 
L 263.444932 319.4965 
L 262.985786 324.253 
L 262.57036 329.0095 
L 262.19307 333.766 
L 261.849228 338.5225 
L 261.534873 343.279 
L 261.246636 348.0355 
L 260.981631 352.792 
L 260.737375 357.5485 
L 260.511719 362.305 
L 260.302794 367.0615 
L 260.108967 371.818 
L 259.928808 376.5745 
L 259.761053 381.331 
L 259.604588 386.0875 
L 259.458423 390.844 
L 259.321679 395.6005 
L 259.193569 400.357 
L 259.073389 405.1135 
L 258.960508 409.87 
" style="fill:none;stroke:#800000;stroke-width:1.5;"/>
    <path clip-path="url(#p29cebb73df)" d="M 58.701719 214.77918 
L 63.584219 214.669211 
L 68.466719 214.552133 
L 73.349219 214.427329 
L 78.231719 214.294114 
L 83.114219 214.151721 
L 87.996719 213.999294 
L 92.879219 213.835868 
L 97.761719 213.660358 
L 102.644219 213.471533 
L 107.526719 213.268 
L 112.409219 213.048167 
L 117.291719 212.810215 
L 122.174219 212.552049 
L 127.056719 212.27125 
L 131.939219 211.965007 
L 136.821719 211.630039 
L 141.704219 211.262485 
L 146.586719 210.85778 
L 151.469219 210.410483 
L 154.620336 210.097 
L 156.351719 209.93845 
L 161.234219 209.455445 
L 166.116719 208.908786 
L 170.999219 208.286683 
L 175.881719 207.574356 
L 180.764219 206.753036 
L 185.646719 205.798533 
L 187.754939 205.3405 
L 190.529219 204.738236 
L 195.411719 203.520525 
L 200.294219 202.045137 
L 204.317124 200.584 
L 205.176719 200.255966 
L 210.059219 198.131459 
L 214.256456 195.8275 
L 214.941719 195.414609 
L 219.824219 191.963917 
L 220.889704 191.071 
L 224.706719 187.352489 
L 225.623289 186.3145 
L 229.165391 181.558 
L 229.589219 180.890421 
L 231.95421 176.8015 
L 234.134995 172.045 
L 234.471719 171.207588 
L 235.971561 167.2885 
L 237.486032 162.532 
L 238.736001 157.7755 
L 239.354219 155.072815 
L 239.824385 153.019 
L 240.804173 148.2625 
L 241.64725 143.506 
L 242.378446 138.7495 
L 243.017029 133.993 
L 243.578169 129.2365 
L 244.073969 124.48 
L 244.236719 122.793298 
L 244.558506 119.7235 
L 245.017652 114.967 
L 245.433077 110.2105 
L 245.810368 105.454 
L 246.15421 100.6975 
L 246.468564 95.941 
L 246.756802 91.1845 
L 247.021807 86.428 
L 247.266063 81.6715 
L 247.491719 76.915 
L 247.700644 72.1585 
L 247.89447 67.402 
L 248.07463 62.6455 
L 248.242385 57.889 
L 248.39885 53.1325 
L 248.545014 48.376 
L 248.681758 43.6195 
L 248.809868 38.863 
L 248.930048 34.1065 
L 249.04293 29.35 
" style="fill:none;stroke:#800000;stroke-width:1.5;"/>
    <path clip-path="url(#p29cebb73df)" d="M 283.373008 29.35 
L 284.048688 34.1065 
L 284.789613 38.863 
L 285.605305 43.6195 
L 286.507185 48.376 
L 287.509072 53.1325 
L 288.179219 56.073799 
L 288.529425 57.889 
L 289.502785 62.6455 
L 290.589953 67.402 
L 291.811228 72.1585 
L 293.061719 76.502109 
L 293.166719 76.915 
L 294.427003 81.6715 
L 295.856773 86.428 
L 297.491088 91.1845 
L 297.944219 92.422755 
L 299.122048 95.941 
L 300.909228 100.6975 
L 302.826719 105.125966 
L 302.960559 105.454 
L 305.002053 110.2105 
L 307.400886 114.967 
L 307.709219 115.543545 
L 309.877302 119.7235 
L 312.591719 124.20851 
L 312.754469 124.48 
L 315.783799 129.2365 
L 317.474219 131.591964 
L 319.223117 133.993 
L 322.356719 137.863807 
L 323.097769 138.7495 
L 327.239219 143.291017 
L 327.445405 143.506 
L 332.121719 148.061634 
L 332.342397 148.2625 
L 337.004219 152.297074 
L 337.913374 153.019 
L 341.886719 156.071734 
L 344.351359 157.7755 
L 346.769219 159.422296 
L 351.651719 162.37345 
L 351.9304 162.532 
L 356.534219 165.176367 
L 360.824901 167.2885 
L 361.416719 167.588876 
L 366.299219 169.925804 
L 371.181719 171.914613 
L 371.518443 172.045 
L 376.064219 173.913007 
L 380.946719 175.654066 
L 384.558163 176.8015 
L 385.829219 177.242937 
L 390.711719 178.835076 
L 395.594219 180.227949 
L 400.476719 181.45571 
L 400.900547 181.558 
L 405.359219 182.77622 
L 410.241719 183.965978 
L 415.124219 185.02509 
L 420.006719 185.973332 
L 421.870005 186.3145 
L 424.889219 186.967353 
L 429.771719 187.943384 
L 434.654219 188.82199 
L 439.536719 189.616632 
L 444.419219 190.338436 
L 449.301719 190.99668 
" style="fill:none;stroke:#800000;stroke-width:1.5;"/>
   </g>
   <g id="line2d_37">
    <path clip-path="url(#p29cebb73df)" d="M 58.701719 231.50125 
L 63.584219 231.806154 
L 68.466719 232.127105 
L 73.349219 232.465405 
L 78.231719 232.8225 
L 83.114219 233.2 
L 87.996719 233.599706 
L 92.879219 234.023636 
L 97.761719 234.474062 
L 102.644219 234.953548 
L 107.526719 235.465 
L 112.409219 236.011724 
L 117.291719 236.5975 
L 122.174219 237.226667 
L 127.056719 237.904231 
L 131.939219 238.636 
L 136.821719 239.42875 
L 141.704219 240.290435 
L 146.586719 241.230455 
L 151.469219 242.26 
L 156.351719 243.3925 
L 161.234219 244.644211 
L 166.116719 246.035 
L 170.999219 247.589412 
L 175.881719 249.338125 
L 180.764219 251.32 
L 185.646719 253.585 
L 190.529219 256.198462 
L 195.411719 259.2475 
L 200.294219 262.850909 
L 205.176719 267.175 
L 210.059219 272.46 
L 214.941719 279.06625 
L 219.824219 287.56 
L 224.706719 298.885 
L 229.589219 314.74 
L 234.471719 338.5225 
L 239.354219 378.16 
L 244.236719 457.435 
" style="fill:none;stroke:#000000;stroke-dasharray:5.55,2.4;stroke-dashoffset:0;stroke-width:1.5;"/>
   </g>
   <g id="line2d_38">
    <path clip-path="url(#p29cebb73df)" d="M 264.82698 -1 
L 268.649219 61.06 
L 273.531719 100.6975 
L 278.414219 124.48 
L 283.296719 140.335 
L 288.179219 151.66 
L 293.061719 160.15375 
L 297.944219 166.76 
L 302.826719 172.045 
L 307.709219 176.369091 
L 312.591719 179.9725 
L 317.474219 183.021538 
L 322.356719 185.635 
L 327.239219 187.9 
L 332.121719 189.881875 
L 337.004219 191.630588 
L 341.886719 193.185 
L 346.769219 194.575789 
L 351.651719 195.8275 
L 356.534219 196.96 
L 361.416719 197.989545 
L 366.299219 198.929565 
L 371.181719 199.79125 
L 376.064219 200.584 
L 380.946719 201.315769 
L 385.829219 201.993333 
L 390.711719 202.6225 
L 395.594219 203.208276 
L 400.476719 203.755 
L 405.359219 204.266452 
L 410.241719 204.745937 
L 415.124219 205.196364 
L 420.006719 205.620294 
L 424.889219 206.02 
L 429.771719 206.3975 
L 434.654219 206.754595 
L 439.536719 207.092895 
L 444.419219 207.413846 
L 449.301719 207.71875 
" style="fill:none;stroke:#000000;stroke-dasharray:5.55,2.4;stroke-dashoffset:0;stroke-width:1.5;"/>
   </g>
   <g id="line2d_39">
    <path clip-path="url(#p29cebb73df)" d="M 317.474219 172.045 
L 317.401042 170.620427 
L 317.182244 169.210088 
L 316.82001 167.828074 
L 316.31796 166.488195 
L 315.681109 165.203837 
L 314.915822 163.987834 
L 314.029745 162.852336 
L 313.03173 161.808687 
L 311.931751 160.867317 
L 310.740797 160.03763 
L 309.470768 159.327917 
L 308.134354 158.745268 
L 306.744908 158.295506 
L 305.316312 157.983125 
L 303.862842 157.811245 
L 302.399019 157.781584 
L 300.939469 157.894439 
L 299.498776 158.148681 
L 298.091335 158.541771 
L 296.731208 159.06978 
L 295.431985 159.727434 
L 294.206649 160.508161 
L 293.067441 161.404159 
L 292.025744 162.406478 
L 291.091968 163.505102 
L 290.275441 164.689053 
L 289.584322 165.946503 
L 289.025517 167.264887 
L 288.604609 168.631032 
L 288.325804 170.031288 
L 288.191887 171.451665 
L 288.204196 172.87797 
L 288.362609 174.295952 
L 288.665542 175.691444 
L 289.109969 177.050501 
L 289.69145 178.359545 
L 290.404174 179.605497 
L 291.241019 180.775906 
L 292.193625 181.859079 
L 293.252474 182.844193 
L 294.406985 183.721405 
L 295.645623 184.48195 
L 296.956013 185.11823 
L 298.325061 185.623886 
L 299.739087 185.993866 
L 301.183965 186.224474 
L 302.645256 186.313405 
L 304.10836 186.259771 
L 305.558659 186.064108 
L 306.981661 185.72837 
L 308.363148 185.255913 
L 309.689317 184.651456 
L 310.946917 183.92104 
L 312.123383 183.071963 
L 313.206959 182.112708 
L 314.18682 181.052859 
L 315.053174 179.903007 
L 315.797366 178.674641 
L 316.411959 177.380033 
L 316.890813 176.032119 
L 317.229143 174.644368 
L 317.423569 173.230644 
" style="fill:none;stroke:#008000;stroke-linecap:square;stroke-width:1.5;"/>
   </g>
   <g id="line2d_40">
    <path clip-path="url(#p29cebb73df)" d="M 219.824219 267.175 
L 219.751042 265.750427 
L 219.532244 264.340088 
L 219.17001 262.958074 
L 218.66796 261.618195 
L 218.031109 260.333837 
L 217.265822 259.117834 
L 216.379745 257.982336 
L 215.38173 256.938687 
L 214.281751 255.997317 
L 213.090797 255.16763 
L 211.820768 254.457917 
L 210.484354 253.875268 
L 209.094908 253.425506 
L 207.666312 253.113125 
L 206.212842 252.941245 
L 204.749019 252.911584 
L 203.289469 253.024439 
L 201.848776 253.278681 
L 200.441335 253.671771 
L 199.081208 254.19978 
L 197.781985 254.857434 
L 196.556649 255.638161 
L 195.417441 256.534159 
L 194.375744 257.536478 
L 193.441968 258.635102 
L 192.625441 259.819053 
L 191.934322 261.076503 
L 191.375517 262.394887 
L 190.954609 263.761032 
L 190.675804 265.161288 
L 190.541887 266.581665 
L 190.554196 268.00797 
L 190.712609 269.425952 
L 191.015542 270.821444 
L 191.459969 272.180501 
L 192.04145 273.489545 
L 192.754174 274.735497 
L 193.591019 275.905906 
L 194.543625 276.989079 
L 195.602474 277.974193 
L 196.756985 278.851405 
L 197.995623 279.61195 
L 199.306013 280.24823 
L 200.675061 280.753886 
L 202.089087 281.123866 
L 203.533965 281.354474 
L 204.995256 281.443405 
L 206.45836 281.389771 
L 207.908659 281.194108 
L 209.331661 280.85837 
L 210.713148 280.385913 
L 212.039317 279.781456 
L 213.296917 279.05104 
L 214.473383 278.201963 
L 215.556959 277.242708 
L 216.53682 276.182859 
L 217.403174 275.033007 
L 218.147366 273.804641 
L 218.761959 272.510033 
L 219.240813 271.162119 
L 219.579143 269.774368 
L 219.773569 268.360644 
" style="fill:none;stroke:#008000;stroke-linecap:square;stroke-width:1.5;"/>
   </g>
   <g id="line2d_41">
    <path clip-path="url(#p29cebb73df)" d="M 280.041719 76.915 
L 279.992934 75.965285 
L 279.847069 75.025059 
L 279.60558 74.103716 
L 279.270879 73.210463 
L 278.846312 72.354225 
L 278.336121 71.543556 
L 277.745403 70.786557 
L 277.08006 70.090792 
L 276.34674 69.463211 
L 275.552771 68.910087 
L 274.706085 68.436944 
L 273.815142 68.048512 
L 272.888845 67.748671 
L 271.936448 67.540417 
L 270.967468 67.42583 
L 269.991585 67.406056 
L 269.018552 67.481293 
L 268.05809 67.650787 
L 267.119796 67.912847 
L 266.213045 68.264854 
L 265.346897 68.703289 
L 264.530005 69.223774 
L 263.770533 69.821106 
L 263.076069 70.489319 
L 262.453551 71.221734 
L 261.9092 72.011035 
L 261.448454 72.849335 
L 261.075918 73.728258 
L 260.795312 74.639021 
L 260.609442 75.572525 
L 260.520164 76.519443 
L 260.52837 77.470313 
L 260.633979 78.415635 
L 260.835934 79.345963 
L 261.132219 80.252001 
L 261.519873 81.124697 
L 261.995022 81.955331 
L 262.552919 82.735604 
L 263.18799 83.457719 
L 263.893889 84.114462 
L 264.663563 84.69927 
L 265.489322 85.2063 
L 266.362915 85.630487 
L 267.275613 85.967591 
L 268.218298 86.214244 
L 269.181549 86.367983 
L 270.155743 86.42727 
L 271.131146 86.391514 
L 272.098012 86.261072 
L 273.04668 86.037247 
L 273.967671 85.722275 
L 274.851784 85.319304 
L 275.690184 84.83236 
L 276.474495 84.266309 
L 277.196879 83.626805 
L 277.85012 82.92024 
L 278.427689 82.153672 
L 278.923817 81.334761 
L 279.333546 80.471689 
L 279.652782 79.57308 
L 279.878335 78.647912 
L 280.007952 77.705429 
" style="fill:none;stroke:#ff0000;stroke-linecap:square;stroke-width:1.5;"/>
   </g>
   <g id="line2d_42">
    <path clip-path="url(#p29cebb73df)" d="M 410.241719 203.755 
L 410.192934 202.805285 
L 410.047069 201.865059 
L 409.80558 200.943716 
L 409.470879 200.050463 
L 409.046312 199.194225 
L 408.536121 198.383556 
L 407.945403 197.626557 
L 407.28006 196.930792 
L 406.54674 196.303211 
L 405.752771 195.750087 
L 404.906085 195.276944 
L 404.015142 194.888512 
L 403.088845 194.588671 
L 402.136448 194.380417 
L 401.167468 194.26583 
L 400.191585 194.246056 
L 399.218552 194.321293 
L 398.25809 194.490787 
L 397.319796 194.752847 
L 396.413045 195.104854 
L 395.546897 195.543289 
L 394.730005 196.063774 
L 393.970533 196.661106 
L 393.276069 197.329319 
L 392.653551 198.061734 
L 392.1092 198.851035 
L 391.648454 199.689335 
L 391.275918 200.568258 
L 390.995312 201.479021 
L 390.809442 202.412525 
L 390.720164 203.359443 
L 390.72837 204.310313 
L 390.833979 205.255635 
L 391.035934 206.185963 
L 391.332219 207.092001 
L 391.719873 207.964697 
L 392.195022 208.795331 
L 392.752919 209.575604 
L 393.38799 210.297719 
L 394.093889 210.954462 
L 394.863563 211.53927 
L 395.689322 212.0463 
L 396.562915 212.470487 
L 397.475613 212.807591 
L 398.418298 213.054244 
L 399.381549 213.207983 
L 400.355743 213.26727 
L 401.331146 213.231514 
L 402.298012 213.101072 
L 403.24668 212.877247 
L 404.167671 212.562275 
L 405.051784 212.159304 
L 405.890184 211.67236 
L 406.674495 211.106309 
L 407.396879 210.466805 
L 408.05012 209.76024 
L 408.627689 208.993672 
L 409.123817 208.174761 
L 409.533546 207.311689 
L 409.852782 206.41308 
L 410.078335 205.487912 
L 410.207952 204.545429 
" style="fill:none;stroke:#ff0000;stroke-linecap:square;stroke-width:1.5;"/>
   </g>
   <g id="line2d_43">
    <path clip-path="url(#p29cebb73df)" d="M 117.291719 235.465 
L 117.242934 234.515285 
L 117.097069 233.575059 
L 116.85558 232.653716 
L 116.520879 231.760463 
L 116.096312 230.904225 
L 115.586121 230.093556 
L 114.995403 229.336557 
L 114.33006 228.640792 
L 113.59674 228.013211 
L 112.802771 227.460087 
L 111.956085 226.986944 
L 111.065142 226.598512 
L 110.138845 226.298671 
L 109.186448 226.090417 
L 108.217468 225.97583 
L 107.241585 225.956056 
L 106.268552 226.031293 
L 105.30809 226.200787 
L 104.369796 226.462847 
L 103.463045 226.814854 
L 102.596897 227.253289 
L 101.780005 227.773774 
L 101.020533 228.371106 
L 100.326069 229.039319 
L 99.703551 229.771734 
L 99.1592 230.561035 
L 98.698454 231.399335 
L 98.325918 232.278258 
L 98.045312 233.189021 
L 97.859442 234.122525 
L 97.770164 235.069443 
L 97.77837 236.020313 
L 97.883979 236.965635 
L 98.085934 237.895963 
L 98.382219 238.802001 
L 98.769873 239.674697 
L 99.245022 240.505331 
L 99.802919 241.285604 
L 100.43799 242.007719 
L 101.143889 242.664462 
L 101.913563 243.24927 
L 102.739322 243.7563 
L 103.612915 244.180487 
L 104.525613 244.517591 
L 105.468298 244.764244 
L 106.431549 244.917983 
L 107.405743 244.97727 
L 108.381146 244.941514 
L 109.348012 244.811072 
L 110.29668 244.587247 
L 111.217671 244.272275 
L 112.101784 243.869304 
L 112.940184 243.38236 
L 113.724495 242.816309 
L 114.446879 242.176805 
L 115.10012 241.47024 
L 115.677689 240.703672 
L 116.173817 239.884761 
L 116.583546 239.021689 
L 116.902782 238.12308 
L 117.128335 237.197912 
L 117.257952 236.255429 
" style="fill:none;stroke:#ff0000;stroke-linecap:square;stroke-width:1.5;"/>
   </g>
   <g id="line2d_44">
    <path clip-path="url(#p29cebb73df)" d="M 247.491719 362.305 
L 247.442934 361.355285 
L 247.297069 360.415059 
L 247.05558 359.493716 
L 246.720879 358.600463 
L 246.296312 357.744225 
L 245.786121 356.933556 
L 245.195403 356.176557 
L 244.53006 355.480792 
L 243.79674 354.853211 
L 243.002771 354.300087 
L 242.156085 353.826944 
L 241.265142 353.438512 
L 240.338845 353.138671 
L 239.386448 352.930417 
L 238.417468 352.81583 
L 237.441585 352.796056 
L 236.468552 352.871293 
L 235.50809 353.040787 
L 234.569796 353.302847 
L 233.663045 353.654854 
L 232.796897 354.093289 
L 231.980005 354.613774 
L 231.220533 355.211106 
L 230.526069 355.879319 
L 229.903551 356.611734 
L 229.3592 357.401035 
L 228.898454 358.239335 
L 228.525918 359.118258 
L 228.245312 360.029021 
L 228.059442 360.962525 
L 227.970164 361.909443 
L 227.97837 362.860313 
L 228.083979 363.805635 
L 228.285934 364.735963 
L 228.582219 365.642001 
L 228.969873 366.514697 
L 229.445022 367.345331 
L 230.002919 368.125604 
L 230.63799 368.847719 
L 231.343889 369.504462 
L 232.113563 370.08927 
L 232.939322 370.5963 
L 233.812915 371.020487 
L 234.725613 371.357591 
L 235.668298 371.604244 
L 236.631549 371.757983 
L 237.605743 371.81727 
L 238.581146 371.781514 
L 239.548012 371.651072 
L 240.49668 371.427247 
L 241.417671 371.112275 
L 242.301784 370.709304 
L 243.140184 370.22236 
L 243.924495 369.656309 
L 244.646879 369.016805 
L 245.30012 368.31024 
L 245.877689 367.543672 
L 246.373817 366.724761 
L 246.783546 365.861689 
L 247.102782 364.96308 
L 247.328335 364.037912 
L 247.457952 363.095429 
" style="fill:none;stroke:#ff0000;stroke-linecap:square;stroke-width:1.5;"/>
   </g>
   <g id="line2d_45"/>
   <g id="line2d_46"/>
   <g id="patch_3">
    <path d="M 58.701719 409.87 
L 58.701719 29.35 
" style="fill:none;stroke:#000000;stroke-linecap:square;stroke-linejoin:miter;stroke-width:0.8;"/>
   </g>
   <g id="patch_4">
    <path d="M 449.301719 409.87 
L 449.301719 29.35 
" style="fill:none;stroke:#000000;stroke-linecap:square;stroke-linejoin:miter;stroke-width:0.8;"/>
   </g>
   <g id="patch_5">
    <path d="M 58.701719 409.87 
L 449.301719 409.87 
" style="fill:none;stroke:#000000;stroke-linecap:square;stroke-linejoin:miter;stroke-width:0.8;"/>
   </g>
   <g id="patch_6">
    <path d="M 58.701719 29.35 
L 449.301719 29.35 
" style="fill:none;stroke:#000000;stroke-linecap:square;stroke-linejoin:miter;stroke-width:0.8;"/>
   </g>
   <g id="text_21">
    <!-- $y=(w_1 \cdot w_2-1)^2$ -->
    <defs>
     <path d="M 8.40625 -14.3125 
Q 10.5 -17.921875 15.71875 -17.921875 
Q 20.453125 -17.921875 23.921875 -14.59375 
Q 27.390625 -11.28125 29.515625 -6.5625 
Q 31.640625 -1.859375 32.8125 3.078125 
Q 28.375 -1.125 23.1875 -1.125 
Q 19.234375 -1.125 16.453125 0.234375 
Q 13.671875 1.609375 12.125 4.3125 
Q 10.59375 7.03125 10.59375 10.890625 
Q 10.59375 14.15625 11.46875 17.59375 
Q 12.359375 21.046875 13.9375 25.265625 
Q 15.53125 29.5 16.703125 32.625 
Q 18.015625 36.28125 18.015625 38.625 
Q 18.015625 41.609375 15.828125 41.609375 
Q 11.859375 41.609375 9.296875 37.53125 
Q 6.734375 33.453125 5.515625 28.421875 
Q 5.328125 27.78125 4.6875 27.78125 
L 3.515625 27.78125 
Q 2.6875 27.78125 2.6875 28.71875 
L 2.6875 29 
Q 4.296875 34.96875 7.609375 39.578125 
Q 10.9375 44.1875 16.015625 44.1875 
Q 19.578125 44.1875 22.046875 41.84375 
Q 24.515625 39.5 24.515625 35.890625 
Q 24.515625 34.03125 23.6875 31.984375 
Q 23.25 30.765625 21.6875 26.65625 
Q 20.125 22.5625 19.28125 19.875 
Q 18.453125 17.1875 17.921875 14.59375 
Q 17.390625 12.015625 17.390625 9.421875 
Q 17.390625 6.109375 18.796875 3.8125 
Q 20.21875 1.515625 23.296875 1.515625 
Q 29.5 1.515625 34.421875 9.078125 
L 42 39.890625 
Q 42.328125 41.21875 43.546875 42.15625 
Q 44.78125 43.109375 46.1875 43.109375 
Q 47.40625 43.109375 48.3125 42.328125 
Q 49.21875 41.546875 49.21875 40.28125 
Q 49.21875 39.703125 49.125 39.5 
L 39.203125 -0.296875 
Q 37.890625 -5.421875 34.375 -10.109375 
Q 30.859375 -14.796875 25.90625 -17.65625 
Q 20.953125 -20.515625 15.578125 -20.515625 
Q 12.984375 -20.515625 10.4375 -19.5 
Q 7.90625 -18.5 6.34375 -16.5 
Q 4.78125 -14.5 4.78125 -11.8125 
Q 4.78125 -9.078125 6.390625 -7.078125 
Q 8.015625 -5.078125 10.6875 -5.078125 
Q 12.3125 -5.078125 13.40625 -6.078125 
Q 14.5 -7.078125 14.5 -8.6875 
Q 14.5 -10.984375 12.78125 -12.6875 
Q 11.078125 -14.40625 8.796875 -14.40625 
Q 8.6875 -14.359375 8.59375 -14.328125 
Q 8.5 -14.3125 8.40625 -14.3125 
z
" id="Cmmi10-79"/>
     <path d="M 7.515625 13.28125 
Q 6.6875 13.28125 6.140625 13.90625 
Q 5.609375 14.546875 5.609375 15.28125 
Q 5.609375 16.109375 6.140625 16.6875 
Q 6.6875 17.28125 7.515625 17.28125 
L 70.3125 17.28125 
Q 71.046875 17.28125 71.578125 16.6875 
Q 72.125 16.109375 72.125 15.28125 
Q 72.125 14.546875 71.578125 13.90625 
Q 71.046875 13.28125 70.3125 13.28125 
z
M 7.515625 32.71875 
Q 6.6875 32.71875 6.140625 33.296875 
Q 5.609375 33.890625 5.609375 34.71875 
Q 5.609375 35.453125 6.140625 36.078125 
Q 6.6875 36.71875 7.515625 36.71875 
L 70.3125 36.71875 
Q 71.046875 36.71875 71.578125 36.078125 
Q 72.125 35.453125 72.125 34.71875 
Q 72.125 33.890625 71.578125 33.296875 
Q 71.046875 32.71875 70.3125 32.71875 
z
" id="Cmr10-3d"/>
     <path d="M 31 -24.8125 
Q 25.4375 -20.40625 21.40625 -14.71875 
Q 17.390625 -9.03125 14.8125 -2.578125 
Q 12.25 3.859375 10.984375 10.890625 
Q 9.71875 17.921875 9.71875 25 
Q 9.71875 32.171875 10.984375 39.203125 
Q 12.25 46.234375 14.859375 52.734375 
Q 17.484375 59.234375 21.53125 64.890625 
Q 25.59375 70.5625 31 74.8125 
Q 31 75 31.5 75 
L 32.421875 75 
Q 32.71875 75 32.953125 74.734375 
Q 33.203125 74.46875 33.203125 74.125 
Q 33.203125 73.6875 33.015625 73.484375 
Q 28.125 68.703125 24.875 63.234375 
Q 21.625 57.765625 19.640625 51.578125 
Q 17.671875 45.40625 16.796875 38.78125 
Q 15.921875 32.171875 15.921875 25 
Q 15.921875 -6.78125 32.90625 -23.296875 
Q 33.203125 -23.578125 33.203125 -24.125 
Q 33.203125 -24.359375 32.9375 -24.671875 
Q 32.671875 -25 32.421875 -25 
L 31.5 -25 
Q 31 -25 31 -24.8125 
z
" id="Cmr10-28"/>
     <path d="M 8.40625 25 
Q 8.40625 26.421875 9.125 27.6875 
Q 9.859375 28.953125 11.15625 29.734375 
Q 12.453125 30.515625 13.921875 30.515625 
Q 15.328125 30.515625 16.625 29.734375 
Q 17.921875 28.953125 18.65625 27.6875 
Q 19.390625 26.421875 19.390625 25 
Q 19.390625 22.75 17.796875 21.109375 
Q 16.21875 19.484375 13.921875 19.484375 
Q 11.671875 19.484375 10.03125 21.109375 
Q 8.40625 22.75 8.40625 25 
z
" id="Cmsy10-a2"/>
     <path d="M 10.203125 23 
Q 9.375 23 8.828125 23.625 
Q 8.296875 24.265625 8.296875 25 
Q 8.296875 25.734375 8.828125 26.359375 
Q 9.375 27 10.203125 27 
L 67.578125 27 
Q 68.359375 27 68.875 26.359375 
Q 69.390625 25.734375 69.390625 25 
Q 69.390625 24.265625 68.875 23.625 
Q 68.359375 23 67.578125 23 
z
" id="Cmsy10-a1"/>
     <path d="M 6.5 -25 
Q 5.609375 -25 5.609375 -24.125 
Q 5.609375 -23.6875 5.8125 -23.484375 
Q 22.90625 -6.78125 22.90625 25 
Q 22.90625 56.78125 6 73.296875 
Q 5.609375 73.53125 5.609375 74.125 
Q 5.609375 74.46875 5.875 74.734375 
Q 6.15625 75 6.5 75 
L 7.421875 75 
Q 7.71875 75 7.90625 74.8125 
Q 15.09375 69.140625 19.875 61.03125 
Q 24.65625 52.9375 26.875 43.75 
Q 29.109375 34.578125 29.109375 25 
Q 29.109375 17.921875 27.90625 11.0625 
Q 26.703125 4.203125 24.09375 -2.453125 
Q 21.484375 -9.125 17.484375 -14.765625 
Q 13.484375 -20.40625 7.90625 -24.8125 
Q 7.71875 -25 7.421875 -25 
z
" id="Cmr10-29"/>
    </defs>
    <g transform="translate(183.986719 23.35)scale(0.19 -0.19)">
     <use transform="translate(0 0.109375)" xlink:href="#Cmmi10-79"/>
     <use transform="translate(66.582031 0.109375)" xlink:href="#Cmr10-3d"/>
     <use transform="translate(161.826172 0.109375)" xlink:href="#Cmr10-28"/>
     <use transform="translate(200.644531 0.109375)" xlink:href="#Cmmi10-77"/>
     <use transform="translate(272.128906 -16.896875)scale(0.7)" xlink:href="#Cmr10-31"/>
     <use transform="translate(331.064844 0.109375)" xlink:href="#Cmsy10-a2"/>
     <use transform="translate(376.308984 0.109375)" xlink:href="#Cmmi10-77"/>
     <use transform="translate(447.793359 -16.896875)scale(0.7)" xlink:href="#Cmr10-32"/>
     <use transform="translate(506.729297 0.109375)" xlink:href="#Cmsy10-a1"/>
     <use transform="translate(601.973438 0.109375)" xlink:href="#Cmr10-31"/>
     <use transform="translate(651.973438 0.109375)" xlink:href="#Cmr10-29"/>
     <use transform="translate(695.255938 38.373438)scale(0.7)" xlink:href="#Cmr10-32"/>
    </g>
   </g>
   <g id="legend_1">
    <g id="patch_7">
     <path d="M 69.960813 107.401562 
L 235.689719 107.401562 
Q 238.689719 107.401562 238.689719 104.401562 
L 238.689719 39.85 
Q 238.689719 36.85 235.689719 36.85 
L 69.960813 36.85 
Q 66.960813 36.85 66.960813 39.85 
L 66.960813 104.401562 
Q 66.960813 107.401562 69.960813 107.401562 
z
" style="fill:#ffffff;opacity:0.8;stroke:#cccccc;stroke-linejoin:miter;"/>
    </g>
    <g id="line2d_47">
     <path d="M 72.960813 48.997656 
L 102.960813 48.997656 
" style="fill:none;stroke:#000000;stroke-dasharray:5.55,2.4;stroke-dashoffset:0;stroke-width:1.5;"/>
    </g>
    <g id="line2d_48"/>
    <g id="text_22">
     <!-- global solutions -->
     <defs>
      <path d="M 45.40625 27.984375 
Q 45.40625 37.75 41.375 43.109375 
Q 37.359375 48.484375 30.078125 48.484375 
Q 22.859375 48.484375 18.828125 43.109375 
Q 14.796875 37.75 14.796875 27.984375 
Q 14.796875 18.265625 18.828125 12.890625 
Q 22.859375 7.515625 30.078125 7.515625 
Q 37.359375 7.515625 41.375 12.890625 
Q 45.40625 18.265625 45.40625 27.984375 
z
M 54.390625 6.78125 
Q 54.390625 -7.171875 48.1875 -13.984375 
Q 42 -20.796875 29.203125 -20.796875 
Q 24.46875 -20.796875 20.265625 -20.09375 
Q 16.0625 -19.390625 12.109375 -17.921875 
L 12.109375 -9.1875 
Q 16.0625 -11.328125 19.921875 -12.34375 
Q 23.78125 -13.375 27.78125 -13.375 
Q 36.625 -13.375 41.015625 -8.765625 
Q 45.40625 -4.15625 45.40625 5.171875 
L 45.40625 9.625 
Q 42.625 4.78125 38.28125 2.390625 
Q 33.9375 0 27.875 0 
Q 17.828125 0 11.671875 7.65625 
Q 5.515625 15.328125 5.515625 27.984375 
Q 5.515625 40.671875 11.671875 48.328125 
Q 17.828125 56 27.875 56 
Q 33.9375 56 38.28125 53.609375 
Q 42.625 51.21875 45.40625 46.390625 
L 45.40625 54.6875 
L 54.390625 54.6875 
z
" id="DejaVuSans-67"/>
      <path d="M 9.421875 75.984375 
L 18.40625 75.984375 
L 18.40625 0 
L 9.421875 0 
z
" id="DejaVuSans-6c"/>
      <path d="M 30.609375 48.390625 
Q 23.390625 48.390625 19.1875 42.75 
Q 14.984375 37.109375 14.984375 27.296875 
Q 14.984375 17.484375 19.15625 11.84375 
Q 23.34375 6.203125 30.609375 6.203125 
Q 37.796875 6.203125 41.984375 11.859375 
Q 46.1875 17.53125 46.1875 27.296875 
Q 46.1875 37.015625 41.984375 42.703125 
Q 37.796875 48.390625 30.609375 48.390625 
z
M 30.609375 56 
Q 42.328125 56 49.015625 48.375 
Q 55.71875 40.765625 55.71875 27.296875 
Q 55.71875 13.875 49.015625 6.21875 
Q 42.328125 -1.421875 30.609375 -1.421875 
Q 18.84375 -1.421875 12.171875 6.21875 
Q 5.515625 13.875 5.515625 27.296875 
Q 5.515625 40.765625 12.171875 48.375 
Q 18.84375 56 30.609375 56 
z
" id="DejaVuSans-6f"/>
      <path d="M 48.6875 27.296875 
Q 48.6875 37.203125 44.609375 42.84375 
Q 40.53125 48.484375 33.40625 48.484375 
Q 26.265625 48.484375 22.1875 42.84375 
Q 18.109375 37.203125 18.109375 27.296875 
Q 18.109375 17.390625 22.1875 11.75 
Q 26.265625 6.109375 33.40625 6.109375 
Q 40.53125 6.109375 44.609375 11.75 
Q 48.6875 17.390625 48.6875 27.296875 
z
M 18.109375 46.390625 
Q 20.953125 51.265625 25.265625 53.625 
Q 29.59375 56 35.59375 56 
Q 45.5625 56 51.78125 48.09375 
Q 58.015625 40.1875 58.015625 27.296875 
Q 58.015625 14.40625 51.78125 6.484375 
Q 45.5625 -1.421875 35.59375 -1.421875 
Q 29.59375 -1.421875 25.265625 0.953125 
Q 20.953125 3.328125 18.109375 8.203125 
L 18.109375 0 
L 9.078125 0 
L 9.078125 75.984375 
L 18.109375 75.984375 
z
" id="DejaVuSans-62"/>
      <path d="M 34.28125 27.484375 
Q 23.390625 27.484375 19.1875 25 
Q 14.984375 22.515625 14.984375 16.5 
Q 14.984375 11.71875 18.140625 8.90625 
Q 21.296875 6.109375 26.703125 6.109375 
Q 34.1875 6.109375 38.703125 11.40625 
Q 43.21875 16.703125 43.21875 25.484375 
L 43.21875 27.484375 
z
M 52.203125 31.203125 
L 52.203125 0 
L 43.21875 0 
L 43.21875 8.296875 
Q 40.140625 3.328125 35.546875 0.953125 
Q 30.953125 -1.421875 24.3125 -1.421875 
Q 15.921875 -1.421875 10.953125 3.296875 
Q 6 8.015625 6 15.921875 
Q 6 25.140625 12.171875 29.828125 
Q 18.359375 34.515625 30.609375 34.515625 
L 43.21875 34.515625 
L 43.21875 35.40625 
Q 43.21875 41.609375 39.140625 45 
Q 35.0625 48.390625 27.6875 48.390625 
Q 23 48.390625 18.546875 47.265625 
Q 14.109375 46.140625 10.015625 43.890625 
L 10.015625 52.203125 
Q 14.9375 54.109375 19.578125 55.046875 
Q 24.21875 56 28.609375 56 
Q 40.484375 56 46.34375 49.84375 
Q 52.203125 43.703125 52.203125 31.203125 
z
" id="DejaVuSans-61"/>
      <path id="DejaVuSans-20"/>
      <path d="M 44.28125 53.078125 
L 44.28125 44.578125 
Q 40.484375 46.53125 36.375 47.5 
Q 32.28125 48.484375 27.875 48.484375 
Q 21.1875 48.484375 17.84375 46.4375 
Q 14.5 44.390625 14.5 40.28125 
Q 14.5 37.15625 16.890625 35.375 
Q 19.28125 33.59375 26.515625 31.984375 
L 29.59375 31.296875 
Q 39.15625 29.25 43.1875 25.515625 
Q 47.21875 21.78125 47.21875 15.09375 
Q 47.21875 7.46875 41.1875 3.015625 
Q 35.15625 -1.421875 24.609375 -1.421875 
Q 20.21875 -1.421875 15.453125 -0.5625 
Q 10.6875 0.296875 5.421875 2 
L 5.421875 11.28125 
Q 10.40625 8.6875 15.234375 7.390625 
Q 20.0625 6.109375 24.8125 6.109375 
Q 31.15625 6.109375 34.5625 8.28125 
Q 37.984375 10.453125 37.984375 14.40625 
Q 37.984375 18.0625 35.515625 20.015625 
Q 33.0625 21.96875 24.703125 23.78125 
L 21.578125 24.515625 
Q 13.234375 26.265625 9.515625 29.90625 
Q 5.8125 33.546875 5.8125 39.890625 
Q 5.8125 47.609375 11.28125 51.796875 
Q 16.75 56 26.8125 56 
Q 31.78125 56 36.171875 55.265625 
Q 40.578125 54.546875 44.28125 53.078125 
z
" id="DejaVuSans-73"/>
      <path d="M 8.5 21.578125 
L 8.5 54.6875 
L 17.484375 54.6875 
L 17.484375 21.921875 
Q 17.484375 14.15625 20.5 10.265625 
Q 23.53125 6.390625 29.59375 6.390625 
Q 36.859375 6.390625 41.078125 11.03125 
Q 45.3125 15.671875 45.3125 23.6875 
L 45.3125 54.6875 
L 54.296875 54.6875 
L 54.296875 0 
L 45.3125 0 
L 45.3125 8.40625 
Q 42.046875 3.421875 37.71875 1 
Q 33.40625 -1.421875 27.6875 -1.421875 
Q 18.265625 -1.421875 13.375 4.4375 
Q 8.5 10.296875 8.5 21.578125 
z
M 31.109375 56 
z
" id="DejaVuSans-75"/>
      <path d="M 18.3125 70.21875 
L 18.3125 54.6875 
L 36.8125 54.6875 
L 36.8125 47.703125 
L 18.3125 47.703125 
L 18.3125 18.015625 
Q 18.3125 11.328125 20.140625 9.421875 
Q 21.96875 7.515625 27.59375 7.515625 
L 36.8125 7.515625 
L 36.8125 0 
L 27.59375 0 
Q 17.1875 0 13.234375 3.875 
Q 9.28125 7.765625 9.28125 18.015625 
L 9.28125 47.703125 
L 2.6875 47.703125 
L 2.6875 54.6875 
L 9.28125 54.6875 
L 9.28125 70.21875 
z
" id="DejaVuSans-74"/>
      <path d="M 9.421875 54.6875 
L 18.40625 54.6875 
L 18.40625 0 
L 9.421875 0 
z
M 9.421875 75.984375 
L 18.40625 75.984375 
L 18.40625 64.59375 
L 9.421875 64.59375 
z
" id="DejaVuSans-69"/>
      <path d="M 54.890625 33.015625 
L 54.890625 0 
L 45.90625 0 
L 45.90625 32.71875 
Q 45.90625 40.484375 42.875 44.328125 
Q 39.84375 48.1875 33.796875 48.1875 
Q 26.515625 48.1875 22.3125 43.546875 
Q 18.109375 38.921875 18.109375 30.90625 
L 18.109375 0 
L 9.078125 0 
L 9.078125 54.6875 
L 18.109375 54.6875 
L 18.109375 46.1875 
Q 21.34375 51.125 25.703125 53.5625 
Q 30.078125 56 35.796875 56 
Q 45.21875 56 50.046875 50.171875 
Q 54.890625 44.34375 54.890625 33.015625 
z
" id="DejaVuSans-6e"/>
     </defs>
     <g transform="translate(114.960813 54.247656)scale(0.15 -0.15)">
      <use xlink:href="#DejaVuSans-67"/>
      <use x="63.476562" xlink:href="#DejaVuSans-6c"/>
      <use x="91.259766" xlink:href="#DejaVuSans-6f"/>
      <use x="152.441406" xlink:href="#DejaVuSans-62"/>
      <use x="215.917969" xlink:href="#DejaVuSans-61"/>
      <use x="277.197266" xlink:href="#DejaVuSans-6c"/>
      <use x="304.980469" xlink:href="#DejaVuSans-20"/>
      <use x="336.767578" xlink:href="#DejaVuSans-73"/>
      <use x="388.867188" xlink:href="#DejaVuSans-6f"/>
      <use x="450.048828" xlink:href="#DejaVuSans-6c"/>
      <use x="477.832031" xlink:href="#DejaVuSans-75"/>
      <use x="541.210938" xlink:href="#DejaVuSans-74"/>
      <use x="580.419922" xlink:href="#DejaVuSans-69"/>
      <use x="608.203125" xlink:href="#DejaVuSans-6f"/>
      <use x="669.384766" xlink:href="#DejaVuSans-6e"/>
      <use x="732.763672" xlink:href="#DejaVuSans-73"/>
     </g>
    </g>
    <g id="line2d_49"/>
    <g id="line2d_50">
     <defs>
      <path d="M 0 7 
C 1.856422 7 3.637059 6.262436 4.949747 4.949747 
C 6.262436 3.637059 7 1.856422 7 0 
C 7 -1.856422 6.262436 -3.637059 4.949747 -4.949747 
C 3.637059 -6.262436 1.856422 -7 0 -7 
C -1.856422 -7 -3.637059 -6.262436 -4.949747 -4.949747 
C -6.262436 -3.637059 -7 -1.856422 -7 0 
C -7 1.856422 -6.262436 3.637059 -4.949747 4.949747 
C -3.637059 6.262436 -1.856422 7 0 7 
z
" id="m5f9e1c5746" style="stroke:#008000;"/>
     </defs>
     <g>
      <use style="fill:none;stroke:#008000;" x="87.960813" xlink:href="#m5f9e1c5746" y="71.014844"/>
     </g>
    </g>
    <g id="text_23">
     <!-- flat minima -->
     <defs>
      <path d="M 37.109375 75.984375 
L 37.109375 68.5 
L 28.515625 68.5 
Q 23.6875 68.5 21.796875 66.546875 
Q 19.921875 64.59375 19.921875 59.515625 
L 19.921875 54.6875 
L 34.71875 54.6875 
L 34.71875 47.703125 
L 19.921875 47.703125 
L 19.921875 0 
L 10.890625 0 
L 10.890625 47.703125 
L 2.296875 47.703125 
L 2.296875 54.6875 
L 10.890625 54.6875 
L 10.890625 58.5 
Q 10.890625 67.625 15.140625 71.796875 
Q 19.390625 75.984375 28.609375 75.984375 
z
" id="DejaVuSans-66"/>
      <path d="M 52 44.1875 
Q 55.375 50.25 60.0625 53.125 
Q 64.75 56 71.09375 56 
Q 79.640625 56 84.28125 50.015625 
Q 88.921875 44.046875 88.921875 33.015625 
L 88.921875 0 
L 79.890625 0 
L 79.890625 32.71875 
Q 79.890625 40.578125 77.09375 44.375 
Q 74.3125 48.1875 68.609375 48.1875 
Q 61.625 48.1875 57.5625 43.546875 
Q 53.515625 38.921875 53.515625 30.90625 
L 53.515625 0 
L 44.484375 0 
L 44.484375 32.71875 
Q 44.484375 40.625 41.703125 44.40625 
Q 38.921875 48.1875 33.109375 48.1875 
Q 26.21875 48.1875 22.15625 43.53125 
Q 18.109375 38.875 18.109375 30.90625 
L 18.109375 0 
L 9.078125 0 
L 9.078125 54.6875 
L 18.109375 54.6875 
L 18.109375 46.1875 
Q 21.1875 51.21875 25.484375 53.609375 
Q 29.78125 56 35.6875 56 
Q 41.65625 56 45.828125 52.96875 
Q 50 49.953125 52 44.1875 
z
" id="DejaVuSans-6d"/>
     </defs>
     <g transform="translate(114.960813 76.264844)scale(0.15 -0.15)">
      <use xlink:href="#DejaVuSans-66"/>
      <use x="35.205078" xlink:href="#DejaVuSans-6c"/>
      <use x="62.988281" xlink:href="#DejaVuSans-61"/>
      <use x="124.267578" xlink:href="#DejaVuSans-74"/>
      <use x="163.476562" xlink:href="#DejaVuSans-20"/>
      <use x="195.263672" xlink:href="#DejaVuSans-6d"/>
      <use x="292.675781" xlink:href="#DejaVuSans-69"/>
      <use x="320.458984" xlink:href="#DejaVuSans-6e"/>
      <use x="383.837891" xlink:href="#DejaVuSans-69"/>
      <use x="411.621094" xlink:href="#DejaVuSans-6d"/>
      <use x="509.033203" xlink:href="#DejaVuSans-61"/>
     </g>
    </g>
    <g id="line2d_51"/>
    <g id="line2d_52">
     <defs>
      <path d="M 0 5 
C 1.326016 5 2.597899 4.473168 3.535534 3.535534 
C 4.473168 2.597899 5 1.326016 5 0 
C 5 -1.326016 4.473168 -2.597899 3.535534 -3.535534 
C 2.597899 -4.473168 1.326016 -5 0 -5 
C -1.326016 -5 -2.597899 -4.473168 -3.535534 -3.535534 
C -4.473168 -2.597899 -5 -1.326016 -5 0 
C -5 1.326016 -4.473168 2.597899 -3.535534 3.535534 
C -2.597899 4.473168 -1.326016 5 0 5 
z
" id="mf78d447b6b" style="stroke:#ff0000;"/>
     </defs>
     <g>
      <use style="fill:none;stroke:#ff0000;" x="87.960813" xlink:href="#mf78d447b6b" y="93.032031"/>
     </g>
    </g>
    <g id="text_24">
     <!-- sharp minima -->
     <defs>
      <path d="M 54.890625 33.015625 
L 54.890625 0 
L 45.90625 0 
L 45.90625 32.71875 
Q 45.90625 40.484375 42.875 44.328125 
Q 39.84375 48.1875 33.796875 48.1875 
Q 26.515625 48.1875 22.3125 43.546875 
Q 18.109375 38.921875 18.109375 30.90625 
L 18.109375 0 
L 9.078125 0 
L 9.078125 75.984375 
L 18.109375 75.984375 
L 18.109375 46.1875 
Q 21.34375 51.125 25.703125 53.5625 
Q 30.078125 56 35.796875 56 
Q 45.21875 56 50.046875 50.171875 
Q 54.890625 44.34375 54.890625 33.015625 
z
" id="DejaVuSans-68"/>
      <path d="M 41.109375 46.296875 
Q 39.59375 47.171875 37.8125 47.578125 
Q 36.03125 48 33.890625 48 
Q 26.265625 48 22.1875 43.046875 
Q 18.109375 38.09375 18.109375 28.8125 
L 18.109375 0 
L 9.078125 0 
L 9.078125 54.6875 
L 18.109375 54.6875 
L 18.109375 46.1875 
Q 20.953125 51.171875 25.484375 53.578125 
Q 30.03125 56 36.53125 56 
Q 37.453125 56 38.578125 55.875 
Q 39.703125 55.765625 41.0625 55.515625 
z
" id="DejaVuSans-72"/>
      <path d="M 18.109375 8.203125 
L 18.109375 -20.796875 
L 9.078125 -20.796875 
L 9.078125 54.6875 
L 18.109375 54.6875 
L 18.109375 46.390625 
Q 20.953125 51.265625 25.265625 53.625 
Q 29.59375 56 35.59375 56 
Q 45.5625 56 51.78125 48.09375 
Q 58.015625 40.1875 58.015625 27.296875 
Q 58.015625 14.40625 51.78125 6.484375 
Q 45.5625 -1.421875 35.59375 -1.421875 
Q 29.59375 -1.421875 25.265625 0.953125 
Q 20.953125 3.328125 18.109375 8.203125 
z
M 48.6875 27.296875 
Q 48.6875 37.203125 44.609375 42.84375 
Q 40.53125 48.484375 33.40625 48.484375 
Q 26.265625 48.484375 22.1875 42.84375 
Q 18.109375 37.203125 18.109375 27.296875 
Q 18.109375 17.390625 22.1875 11.75 
Q 26.265625 6.109375 33.40625 6.109375 
Q 40.53125 6.109375 44.609375 11.75 
Q 48.6875 17.390625 48.6875 27.296875 
z
" id="DejaVuSans-70"/>
     </defs>
     <g transform="translate(114.960813 98.282031)scale(0.15 -0.15)">
      <use xlink:href="#DejaVuSans-73"/>
      <use x="52.099609" xlink:href="#DejaVuSans-68"/>
      <use x="115.478516" xlink:href="#DejaVuSans-61"/>
      <use x="176.757812" xlink:href="#DejaVuSans-72"/>
      <use x="217.871094" xlink:href="#DejaVuSans-70"/>
      <use x="281.347656" xlink:href="#DejaVuSans-20"/>
      <use x="313.134766" xlink:href="#DejaVuSans-6d"/>
      <use x="410.546875" xlink:href="#DejaVuSans-69"/>
      <use x="438.330078" xlink:href="#DejaVuSans-6e"/>
      <use x="501.708984" xlink:href="#DejaVuSans-69"/>
      <use x="529.492188" xlink:href="#DejaVuSans-6d"/>
      <use x="626.904297" xlink:href="#DejaVuSans-61"/>
     </g>
    </g>
   </g>
  </g>
 </g>
 <defs>
  <clipPath id="p29cebb73df">
   <rect height="380.52" width="390.6" x="58.701719" y="29.35"/>
  </clipPath>
 </defs>
</svg>
